<mxfile>
    <diagram id="HdCi4xxwm43SFn0jPlBq" name="Page-1">
        <mxGraphModel dx="867" dy="1786" grid="1" gridSize="10" guides="1" tooltips="1" connect="1" arrows="1" fold="1" page="1" pageScale="1" pageWidth="827" pageHeight="1169" math="0" shadow="0">
            <root>
                <mxCell id="0"/>
                <mxCell id="1" parent="0"/>
                <mxCell id="fkt52YcFWbxHf_qx1ULQ-287" value="" style="rounded=1;whiteSpace=wrap;html=1;strokeWidth=2;fillColor=#dae8fc;fontSize=17;strokeColor=#6c8ebf;" parent="1" vertex="1">
                    <mxGeometry x="804.4699999999999" y="-1157" width="93.69" height="30" as="geometry"/>
                </mxCell>
                <mxCell id="sylwxvl_cKESi2oZsQH4-89" value="" style="verticalLabelPosition=bottom;align=center;html=1;verticalAlign=top;pointerEvents=1;dashed=0;shape=mxgraph.pid2valves.valve;valveType=gate;defState=closed;strokeWidth=1;fillColor=none;fontSize=17;rotation=-25;" parent="1" vertex="1">
                    <mxGeometry x="733" y="-290" width="20" height="10" as="geometry"/>
                </mxCell>
                <mxCell id="sylwxvl_cKESi2oZsQH4-2" value="" style="endArrow=none;html=1;strokeWidth=4;fillColor=#dae8fc;strokeColor=#6c8ebf;" parent="1" edge="1">
                    <mxGeometry width="50" height="50" relative="1" as="geometry">
                        <mxPoint x="530" y="560" as="sourcePoint"/>
                        <mxPoint x="130" y="-910" as="targetPoint"/>
                        <Array as="points">
                            <mxPoint x="520" y="410"/>
                            <mxPoint x="500" y="240"/>
                            <mxPoint x="460" y="40"/>
                            <mxPoint x="390" y="-210"/>
                            <mxPoint x="250" y="-600"/>
                            <mxPoint x="190" y="-770"/>
                        </Array>
                    </mxGeometry>
                </mxCell>
                <mxCell id="sylwxvl_cKESi2oZsQH4-3" value="" style="endArrow=none;html=1;strokeWidth=4;fillColor=#dae8fc;strokeColor=#6c8ebf;" parent="1" edge="1">
                    <mxGeometry width="50" height="50" relative="1" as="geometry">
                        <mxPoint x="524" y="560" as="sourcePoint"/>
                        <mxPoint x="124" y="-906" as="targetPoint"/>
                        <Array as="points">
                            <mxPoint x="508" y="370"/>
                            <mxPoint x="488" y="230"/>
                            <mxPoint x="470" y="120"/>
                            <mxPoint x="448" y="30"/>
                            <mxPoint x="388" y="-180"/>
                            <mxPoint x="328" y="-350"/>
                            <mxPoint x="268" y="-530"/>
                            <mxPoint x="198" y="-720"/>
                        </Array>
                    </mxGeometry>
                </mxCell>
                <mxCell id="sylwxvl_cKESi2oZsQH4-4" value="" style="endArrow=none;html=1;strokeWidth=4;" parent="1" edge="1">
                    <mxGeometry width="50" height="50" relative="1" as="geometry">
                        <mxPoint x="510" y="50" as="sourcePoint"/>
                        <mxPoint x="260" y="-10" as="targetPoint"/>
                        <Array as="points">
                            <mxPoint x="380" y="40"/>
                            <mxPoint x="310"/>
                        </Array>
                    </mxGeometry>
                </mxCell>
                <mxCell id="sylwxvl_cKESi2oZsQH4-5" value="" style="endArrow=none;html=1;strokeWidth=4;" parent="1" edge="1">
                    <mxGeometry width="50" height="50" relative="1" as="geometry">
                        <mxPoint x="286" y="-6" as="sourcePoint"/>
                        <mxPoint x="380" y="-50" as="targetPoint"/>
                        <Array as="points">
                            <mxPoint x="290" y="-46"/>
                            <mxPoint x="320" y="-50"/>
                            <mxPoint x="350" y="-50"/>
                        </Array>
                    </mxGeometry>
                </mxCell>
                <mxCell id="sylwxvl_cKESi2oZsQH4-6" value="" style="endArrow=none;html=1;strokeWidth=4;" parent="1" edge="1">
                    <mxGeometry width="50" height="50" relative="1" as="geometry">
                        <mxPoint x="90" y="240" as="sourcePoint"/>
                        <mxPoint x="380" y="40" as="targetPoint"/>
                        <Array as="points">
                            <mxPoint x="160" y="210"/>
                            <mxPoint x="180" y="170"/>
                            <mxPoint x="220" y="110"/>
                            <mxPoint x="280" y="110"/>
                            <mxPoint x="340" y="100"/>
                            <mxPoint x="380" y="90"/>
                        </Array>
                    </mxGeometry>
                </mxCell>
                <mxCell id="sylwxvl_cKESi2oZsQH4-7" value="" style="endArrow=none;html=1;strokeWidth=4;" parent="1" edge="1">
                    <mxGeometry width="50" height="50" relative="1" as="geometry">
                        <mxPoint x="338.6209552371631" y="111.0323581026953" as="sourcePoint"/>
                        <mxPoint x="340" y="100" as="targetPoint"/>
                        <Array as="points"/>
                    </mxGeometry>
                </mxCell>
                <mxCell id="sylwxvl_cKESi2oZsQH4-8" value="" style="endArrow=none;html=1;strokeWidth=4;" parent="1" edge="1">
                    <mxGeometry width="50" height="50" relative="1" as="geometry">
                        <mxPoint x="310" y="390" as="sourcePoint"/>
                        <mxPoint x="390" y="400" as="targetPoint"/>
                        <Array as="points">
                            <mxPoint x="330" y="390"/>
                            <mxPoint x="340" y="400"/>
                        </Array>
                    </mxGeometry>
                </mxCell>
                <mxCell id="sylwxvl_cKESi2oZsQH4-9" value="" style="endArrow=none;html=1;strokeWidth=4;" parent="1" edge="1">
                    <mxGeometry width="50" height="50" relative="1" as="geometry">
                        <mxPoint x="341" y="245" as="sourcePoint"/>
                        <mxPoint x="380" y="200" as="targetPoint"/>
                        <Array as="points">
                            <mxPoint x="360" y="240"/>
                            <mxPoint x="370" y="210"/>
                        </Array>
                    </mxGeometry>
                </mxCell>
                <mxCell id="sylwxvl_cKESi2oZsQH4-10" value="&lt;b style=&quot;font-size: 17px;&quot;&gt;37&lt;/b&gt;" style="text;html=1;strokeColor=none;fillColor=none;align=center;verticalAlign=middle;whiteSpace=wrap;rounded=0;opacity=15;strokeWidth=1;perimeterSpacing=0;fontSize=17;" parent="1" vertex="1">
                    <mxGeometry x="316" y="199" width="40" height="20" as="geometry"/>
                </mxCell>
                <mxCell id="sylwxvl_cKESi2oZsQH4-11" value="&lt;b&gt;34&lt;/b&gt;" style="text;html=1;strokeColor=none;fillColor=none;align=center;verticalAlign=middle;whiteSpace=wrap;rounded=0;fontSize=17;opacity=15;" parent="1" vertex="1">
                    <mxGeometry x="316" y="219" width="40" height="20" as="geometry"/>
                </mxCell>
                <mxCell id="sylwxvl_cKESi2oZsQH4-12" value="&lt;div style=&quot;font-size: 14px;&quot;&gt;&lt;span style=&quot;font-size: 14px;&quot;&gt;ENTRADA&lt;/span&gt;&lt;/div&gt;&lt;div style=&quot;font-size: 14px;&quot;&gt;&lt;span style=&quot;font-size: 14px;&quot;&gt;NORTE&lt;/span&gt;&lt;/div&gt;&lt;div style=&quot;font-size: 14px;&quot;&gt;&lt;span style=&quot;font-size: 14px;&quot;&gt;PARQUE&lt;/span&gt;&lt;/div&gt;&lt;div style=&quot;font-size: 14px;&quot;&gt;&lt;span style=&quot;font-size: 14px;&quot;&gt;ANDARAX&lt;/span&gt;&lt;/div&gt;" style="text;html=1;strokeColor=none;fillColor=none;align=center;verticalAlign=middle;whiteSpace=wrap;rounded=0;fontSize=14;opacity=15;fontStyle=1" parent="1" vertex="1">
                    <mxGeometry x="426" y="258" width="10" height="20" as="geometry"/>
                </mxCell>
                <mxCell id="sylwxvl_cKESi2oZsQH4-13" value="" style="rounded=1;whiteSpace=wrap;html=1;strokeWidth=2;fontSize=14;perimeterSpacing=0;fillColor=none;" parent="1" vertex="1">
                    <mxGeometry x="386" y="234" width="90" height="68" as="geometry"/>
                </mxCell>
                <mxCell id="sylwxvl_cKESi2oZsQH4-14" value="&lt;b style=&quot;font-size: 17px;&quot;&gt;27&lt;/b&gt;" style="text;html=1;strokeColor=none;fillColor=none;align=center;verticalAlign=middle;whiteSpace=wrap;rounded=0;fontSize=17;strokeWidth=1;" parent="1" vertex="1">
                    <mxGeometry x="316" y="251" width="40" height="20" as="geometry"/>
                </mxCell>
                <mxCell id="sylwxvl_cKESi2oZsQH4-15" value="&lt;b&gt;15&lt;/b&gt;" style="text;html=1;strokeColor=none;fillColor=none;align=center;verticalAlign=middle;whiteSpace=wrap;rounded=0;fontSize=17;" parent="1" vertex="1">
                    <mxGeometry x="335" y="281" width="40" height="20" as="geometry"/>
                </mxCell>
                <mxCell id="sylwxvl_cKESi2oZsQH4-16" value="13" style="text;html=1;strokeColor=none;fillColor=none;align=center;verticalAlign=middle;whiteSpace=wrap;rounded=0;fontSize=17;fontStyle=1" parent="1" vertex="1">
                    <mxGeometry x="336" y="311" width="40" height="20" as="geometry"/>
                </mxCell>
                <mxCell id="sylwxvl_cKESi2oZsQH4-17" value="&lt;u&gt;12&lt;/u&gt;" style="text;html=1;strokeColor=none;fillColor=none;align=center;verticalAlign=middle;whiteSpace=wrap;rounded=0;fontSize=17;" parent="1" vertex="1">
                    <mxGeometry x="380" y="307" width="40" height="20" as="geometry"/>
                </mxCell>
                <mxCell id="sylwxvl_cKESi2oZsQH4-18" value="&lt;u&gt;11&lt;/u&gt;" style="text;html=1;strokeColor=none;fillColor=none;align=center;verticalAlign=middle;whiteSpace=wrap;rounded=0;fontSize=17;" parent="1" vertex="1">
                    <mxGeometry x="408" y="350" width="40" height="20" as="geometry"/>
                </mxCell>
                <mxCell id="sylwxvl_cKESi2oZsQH4-19" value="&lt;u&gt;6&lt;/u&gt;" style="text;html=1;strokeColor=none;fillColor=none;align=center;verticalAlign=middle;whiteSpace=wrap;rounded=0;fontSize=17;" parent="1" vertex="1">
                    <mxGeometry x="276" y="377" width="40" height="20" as="geometry"/>
                </mxCell>
                <mxCell id="sylwxvl_cKESi2oZsQH4-20" value="8" style="text;html=1;strokeColor=none;fillColor=none;align=center;verticalAlign=middle;whiteSpace=wrap;rounded=0;fontSize=17;fontStyle=4" parent="1" vertex="1">
                    <mxGeometry x="352" y="377" width="40" height="20" as="geometry"/>
                </mxCell>
                <mxCell id="sylwxvl_cKESi2oZsQH4-21" value="10" style="text;html=1;strokeColor=none;fillColor=none;align=center;verticalAlign=middle;whiteSpace=wrap;rounded=0;fontSize=17;fontStyle=1" parent="1" vertex="1">
                    <mxGeometry x="401" y="390" width="40" height="20" as="geometry"/>
                </mxCell>
                <mxCell id="sylwxvl_cKESi2oZsQH4-22" value="9" style="text;html=1;strokeColor=none;fillColor=none;align=center;verticalAlign=middle;whiteSpace=wrap;rounded=0;fontSize=17;fontStyle=1" parent="1" vertex="1">
                    <mxGeometry x="362" y="416" width="40" height="20" as="geometry"/>
                </mxCell>
                <mxCell id="sylwxvl_cKESi2oZsQH4-23" value="5" style="text;html=1;strokeColor=none;fillColor=none;align=center;verticalAlign=middle;whiteSpace=wrap;rounded=0;fontSize=17;fontStyle=1" parent="1" vertex="1">
                    <mxGeometry x="356" y="450" width="40" height="20" as="geometry"/>
                </mxCell>
                <mxCell id="sylwxvl_cKESi2oZsQH4-27" value="" style="endArrow=none;html=1;strokeWidth=4;" parent="1" source="sylwxvl_cKESi2oZsQH4-33" edge="1">
                    <mxGeometry width="50" height="50" relative="1" as="geometry">
                        <mxPoint x="363" y="471.37931034482745" as="sourcePoint"/>
                        <mxPoint x="340" y="100" as="targetPoint"/>
                        <Array as="points"/>
                    </mxGeometry>
                </mxCell>
                <mxCell id="sylwxvl_cKESi2oZsQH4-28" value="" style="verticalLabelPosition=bottom;align=center;html=1;verticalAlign=top;pointerEvents=1;dashed=0;shape=mxgraph.pid2valves.valve;valveType=gate;defState=closed;strokeWidth=1;fillColor=none;fontSize=17;rotation=-60;" parent="1" vertex="1">
                    <mxGeometry x="354" y="25" width="20" height="10" as="geometry"/>
                </mxCell>
                <mxCell id="sylwxvl_cKESi2oZsQH4-33" value="" style="verticalLabelPosition=bottom;align=center;html=1;verticalAlign=top;pointerEvents=1;dashed=0;shape=mxgraph.pid2valves.valve;valveType=gate;defState=closed;strokeWidth=1;fillColor=none;fontSize=17;rotation=10;" parent="1" vertex="1">
                    <mxGeometry x="328" y="112" width="20" height="10" as="geometry"/>
                </mxCell>
                <mxCell id="sylwxvl_cKESi2oZsQH4-36" value="" style="endArrow=none;html=1;strokeWidth=4;" parent="1" target="sylwxvl_cKESi2oZsQH4-33" edge="1">
                    <mxGeometry width="50" height="50" relative="1" as="geometry">
                        <mxPoint x="362.9999999999999" y="471.37931034482745" as="sourcePoint"/>
                        <mxPoint x="340" y="100" as="targetPoint"/>
                        <Array as="points">
                            <mxPoint x="383" y="400"/>
                            <mxPoint x="413" y="400"/>
                            <mxPoint x="413" y="330"/>
                            <mxPoint x="373" y="330"/>
                            <mxPoint x="373" y="250"/>
                            <mxPoint x="353" y="250"/>
                            <mxPoint x="323" y="230"/>
                            <mxPoint x="323" y="210"/>
                            <mxPoint x="333" y="180"/>
                        </Array>
                    </mxGeometry>
                </mxCell>
                <mxCell id="sylwxvl_cKESi2oZsQH4-37" value="" style="verticalLabelPosition=bottom;align=center;html=1;verticalAlign=top;pointerEvents=1;dashed=0;shape=mxgraph.pid2valves.valve;valveType=gate;defState=closed;strokeWidth=1;fillColor=none;fontSize=17;rotation=10;" parent="1" vertex="1">
                    <mxGeometry x="370" y="40" width="20" height="10" as="geometry"/>
                </mxCell>
                <mxCell id="sylwxvl_cKESi2oZsQH4-39" value="" style="endArrow=none;html=1;strokeWidth=4;fontSize=17;" parent="1" source="sylwxvl_cKESi2oZsQH4-90" edge="1">
                    <mxGeometry width="50" height="50" relative="1" as="geometry">
                        <mxPoint x="1051" y="220" as="sourcePoint"/>
                        <mxPoint x="1171" y="-78" as="targetPoint"/>
                        <Array as="points">
                            <mxPoint x="731" y="-310"/>
                            <mxPoint x="821" y="-338"/>
                            <mxPoint x="921" y="-348"/>
                            <mxPoint x="981" y="-338"/>
                            <mxPoint x="1051" y="-318"/>
                            <mxPoint x="1131" y="-288"/>
                            <mxPoint x="1171" y="-258"/>
                            <mxPoint x="1191" y="-218"/>
                            <mxPoint x="1161" y="-208"/>
                            <mxPoint x="1171" y="-178"/>
                            <mxPoint x="1217" y="-98"/>
                        </Array>
                    </mxGeometry>
                </mxCell>
                <mxCell id="sylwxvl_cKESi2oZsQH4-40" value="" style="verticalLabelPosition=bottom;align=center;outlineConnect=0;dashed=0;html=1;verticalAlign=top;shape=mxgraph.pid.flow_sensors.rotameter;strokeWidth=3;fillColor=none;fontSize=17;rotation=-90;" parent="1" vertex="1">
                    <mxGeometry x="817.31" y="421.32" width="14" height="8.38" as="geometry"/>
                </mxCell>
                <mxCell id="sylwxvl_cKESi2oZsQH4-41" value="&lt;span style=&quot;color: rgba(0 , 0 , 0 , 0) ; font-family: monospace ; font-size: 0px&quot;&gt;%3CmxGraphModel%3E%3Croot%3E%3CmxCell%20id%3D%220%22%2F%3E%3CmxCell%20id%3D%221%22%20parent%3D%220%22%2F%3E%3CmxCell%20id%3D%222%22%20value%3D%22%22%20style%3D%22verticalLabelPosition%3Dbottom%3Balign%3Dcenter%3Bhtml%3D1%3BverticalAlign%3Dtop%3BpointerEvents%3D1%3Bdashed%3D0%3Bshape%3Dmxgraph.pid2valves.valve%3BvalveType%3Dgate%3BdefState%3Dclosed%3BstrokeWidth%3D1%3BfillColor%3Dnone%3BfontSize%3D17%3Brotation%3D-60%3B%22%20vertex%3D%221%22%20parent%3D%221%22%3E%3CmxGeometry%20x%3D%22834%22%20y%3D%22-500%22%20width%3D%2220%22%20height%3D%2210%22%20as%3D%22geometry%22%2F%3E%3C%2FmxCell%3E%3C%2Froot%3E%3C%2FmxGraphModel%3E&lt;/span&gt;&lt;span style=&quot;color: rgba(0 , 0 , 0 , 0) ; font-family: monospace ; font-size: 0px&quot;&gt;%3CmxGraphModel%3E%3Croot%3E%3CmxCell%20id%3D%220%22%2F%3E%3CmxCell%20id%3D%221%22%20parent%3D%220%22%2F%3E%3CmxCell%20id%3D%222%22%20value%3D%22%22%20style%3D%22verticalLabelPosition%3Dbottom%3Balign%3Dcenter%3Bhtml%3D1%3BverticalAlign%3Dtop%3BpointerEvents%3D1%3Bdashed%3D0%3Bshape%3Dmxgraph.pid2valves.valve%3BvalveType%3Dgate%3BdefState%3Dclosed%3BstrokeWidth%3D1%3BfillColor%3Dnone%3BfontSize%3D17%3Brotation%3D-60%3B%22%20vertex%3D%221%22%20parent%3D%221%22%3E%3CmxGeometry%20x%3D%22834%22%20y%3D%22-500%22%20width%3D%2220%22%20height%3D%2210%22%20as%3D%22geometry%22%2F%3E%3C%2FmxCell%3E%3C%2Froot%3E%3C%2FmxGraphModel%3E&lt;/span&gt;" style="verticalLabelPosition=bottom;align=center;outlineConnect=0;dashed=0;html=1;verticalAlign=top;shape=mxgraph.pid.flow_sensors.rotameter;strokeWidth=3;fillColor=none;fontSize=17;rotation=-90;" parent="1" vertex="1">
                    <mxGeometry x="979.9999999999999" y="-413" width="14" height="8.38" as="geometry"/>
                </mxCell>
                <mxCell id="sylwxvl_cKESi2oZsQH4-42" value="" style="verticalLabelPosition=bottom;align=center;outlineConnect=0;dashed=0;html=1;verticalAlign=top;shape=mxgraph.pid.flow_sensors.rotameter;strokeWidth=3;fillColor=none;fontSize=17;rotation=-90;" parent="1" vertex="1">
                    <mxGeometry x="1048" y="222.81" width="14" height="8.38" as="geometry"/>
                </mxCell>
                <mxCell id="sylwxvl_cKESi2oZsQH4-43" value="" style="verticalLabelPosition=bottom;align=center;outlineConnect=0;dashed=0;html=1;verticalAlign=top;shape=mxgraph.pid.flow_sensors.rotameter;strokeWidth=3;fillColor=none;fontSize=17;rotation=-90;" parent="1" vertex="1">
                    <mxGeometry x="949" y="329" width="14" height="8.38" as="geometry"/>
                </mxCell>
                <mxCell id="sylwxvl_cKESi2oZsQH4-44" value="" style="verticalLabelPosition=bottom;align=center;outlineConnect=0;dashed=0;html=1;verticalAlign=top;shape=mxgraph.pid.flow_sensors.rotameter;strokeWidth=3;fillColor=none;fontSize=17;rotation=-90;" parent="1" vertex="1">
                    <mxGeometry x="614" y="493" width="14" height="8.38" as="geometry"/>
                </mxCell>
                <mxCell id="sylwxvl_cKESi2oZsQH4-45" value="" style="verticalLabelPosition=bottom;align=center;outlineConnect=0;dashed=0;html=1;verticalAlign=top;shape=mxgraph.pid.flow_sensors.rotameter;strokeWidth=3;fillColor=none;fontSize=17;rotation=-90;" parent="1" vertex="1">
                    <mxGeometry x="716" y="493" width="14" height="8.38" as="geometry"/>
                </mxCell>
                <mxCell id="sylwxvl_cKESi2oZsQH4-46" value="" style="verticalLabelPosition=bottom;align=center;outlineConnect=0;dashed=0;html=1;verticalAlign=top;shape=mxgraph.pid.flow_sensors.rotameter;strokeWidth=3;fillColor=none;fontSize=17;rotation=-90;" parent="1" vertex="1">
                    <mxGeometry x="476" y="-280.19" width="14" height="8.38" as="geometry"/>
                </mxCell>
                <mxCell id="sylwxvl_cKESi2oZsQH4-47" value="" style="verticalLabelPosition=bottom;align=center;outlineConnect=0;dashed=0;html=1;verticalAlign=top;shape=mxgraph.pid.flow_sensors.rotameter;strokeWidth=3;fillColor=none;fontSize=17;rotation=-90;" parent="1" vertex="1">
                    <mxGeometry x="513" y="118" width="14" height="8.38" as="geometry"/>
                </mxCell>
                <mxCell id="sylwxvl_cKESi2oZsQH4-51" value="" style="verticalLabelPosition=bottom;align=center;html=1;verticalAlign=top;pointerEvents=1;dashed=0;shape=mxgraph.pid2valves.valve;valveType=gate;defState=closed;strokeWidth=1;fillColor=none;fontSize=17;rotation=-116;" parent="1" vertex="1">
                    <mxGeometry x="889" y="6" width="20" height="10" as="geometry"/>
                </mxCell>
                <mxCell id="sylwxvl_cKESi2oZsQH4-53" value="" style="verticalLabelPosition=bottom;align=center;html=1;verticalAlign=top;pointerEvents=1;dashed=0;shape=mxgraph.pid2valves.valve;valveType=gate;defState=closed;strokeWidth=1;fillColor=none;fontSize=17;rotation=-15;" parent="1" vertex="1">
                    <mxGeometry x="974" y="-435" width="20" height="10" as="geometry"/>
                </mxCell>
                <mxCell id="sylwxvl_cKESi2oZsQH4-54" value="" style="verticalLabelPosition=bottom;align=center;html=1;verticalAlign=top;pointerEvents=1;dashed=0;shape=mxgraph.pid2valves.valve;valveType=gate;defState=closed;strokeWidth=1;fillColor=none;fontSize=17;rotation=-100;" parent="1" vertex="1">
                    <mxGeometry x="862" y="20" width="20" height="10" as="geometry"/>
                </mxCell>
                <mxCell id="sylwxvl_cKESi2oZsQH4-55" value="" style="endArrow=none;html=1;strokeWidth=4;fontSize=17;" parent="1" edge="1">
                    <mxGeometry width="50" height="50" relative="1" as="geometry">
                        <mxPoint x="950" y="172" as="sourcePoint"/>
                        <mxPoint x="989" y="142" as="targetPoint"/>
                        <Array as="points">
                            <mxPoint x="979" y="172"/>
                        </Array>
                    </mxGeometry>
                </mxCell>
                <mxCell id="sylwxvl_cKESi2oZsQH4-56" value="133" style="text;html=1;strokeColor=none;fillColor=none;align=center;verticalAlign=middle;whiteSpace=wrap;rounded=0;fontSize=17;fontStyle=1" parent="1" vertex="1">
                    <mxGeometry x="938" y="172" width="40" height="20" as="geometry"/>
                </mxCell>
                <mxCell id="sylwxvl_cKESi2oZsQH4-57" value="131" style="text;html=1;strokeColor=none;fillColor=none;align=center;verticalAlign=middle;whiteSpace=wrap;rounded=0;fontSize=17;fontStyle=1" parent="1" vertex="1">
                    <mxGeometry x="1035" y="192" width="40" height="20" as="geometry"/>
                </mxCell>
                <mxCell id="sylwxvl_cKESi2oZsQH4-58" value="&lt;u&gt;132&lt;/u&gt;" style="text;html=1;strokeColor=none;fillColor=none;align=center;verticalAlign=middle;whiteSpace=wrap;rounded=0;fontSize=17;" parent="1" vertex="1">
                    <mxGeometry x="986" y="126.38" width="40" height="20" as="geometry"/>
                </mxCell>
                <mxCell id="sylwxvl_cKESi2oZsQH4-59" value="" style="endArrow=none;html=1;strokeWidth=4;fontSize=17;" parent="1" edge="1">
                    <mxGeometry width="50" height="50" relative="1" as="geometry">
                        <mxPoint x="950" y="88" as="sourcePoint"/>
                        <mxPoint x="1020" y="78" as="targetPoint"/>
                        <Array as="points">
                            <mxPoint x="990" y="98"/>
                        </Array>
                    </mxGeometry>
                </mxCell>
                <mxCell id="sylwxvl_cKESi2oZsQH4-60" value="128" style="text;html=1;strokeColor=none;fillColor=none;align=center;verticalAlign=middle;whiteSpace=wrap;rounded=0;fontSize=17;fontStyle=1" parent="1" vertex="1">
                    <mxGeometry x="983" y="94" width="40" height="20" as="geometry"/>
                </mxCell>
                <mxCell id="sylwxvl_cKESi2oZsQH4-61" value="125" style="text;html=1;strokeColor=none;fillColor=none;align=center;verticalAlign=middle;whiteSpace=wrap;rounded=0;fontSize=17;fontStyle=1" parent="1" vertex="1">
                    <mxGeometry x="1020" y="67" width="40" height="20" as="geometry"/>
                </mxCell>
                <mxCell id="sylwxvl_cKESi2oZsQH4-62" value="&lt;font style=&quot;font-size: 13px;&quot;&gt;&lt;b style=&quot;font-size: 13px;&quot;&gt;UNIVERSIDAD&lt;/b&gt;&lt;/font&gt;" style="text;html=1;strokeColor=none;fillColor=none;align=center;verticalAlign=middle;whiteSpace=wrap;rounded=0;fontSize=13;" parent="1" vertex="1">
                    <mxGeometry x="1103" y="128" width="40" height="20" as="geometry"/>
                </mxCell>
                <mxCell id="sylwxvl_cKESi2oZsQH4-63" value="" style="rounded=1;whiteSpace=wrap;html=1;strokeWidth=3;fillColor=none;fontSize=13;" parent="1" vertex="1">
                    <mxGeometry x="1073" y="128" width="100" height="20" as="geometry"/>
                </mxCell>
                <mxCell id="sylwxvl_cKESi2oZsQH4-64" value="127" style="text;html=1;strokeColor=none;fillColor=none;align=center;verticalAlign=middle;whiteSpace=wrap;rounded=0;fontSize=17;fontStyle=1" parent="1" vertex="1">
                    <mxGeometry x="870" y="27" width="40" height="20" as="geometry"/>
                </mxCell>
                <mxCell id="sylwxvl_cKESi2oZsQH4-65" value="120" style="text;html=1;strokeColor=none;fillColor=none;align=center;verticalAlign=middle;whiteSpace=wrap;rounded=0;fontSize=17;fontStyle=1" parent="1" vertex="1">
                    <mxGeometry x="909" y="-6" width="40" height="20" as="geometry"/>
                </mxCell>
                <mxCell id="sylwxvl_cKESi2oZsQH4-66" value="" style="endArrow=none;html=1;strokeWidth=4;fontSize=17;" parent="1" edge="1">
                    <mxGeometry width="50" height="50" relative="1" as="geometry">
                        <mxPoint x="1090" y="40" as="sourcePoint"/>
                        <mxPoint x="890" y="20" as="targetPoint"/>
                        <Array as="points">
                            <mxPoint x="1130" y="10"/>
                            <mxPoint x="1070" y="-110"/>
                            <mxPoint x="1060" y="-100"/>
                            <mxPoint x="1020" y="-80"/>
                            <mxPoint x="930" y="-40"/>
                            <mxPoint x="890" y="-10"/>
                            <mxPoint x="880"/>
                        </Array>
                    </mxGeometry>
                </mxCell>
                <mxCell id="sylwxvl_cKESi2oZsQH4-67" value="" style="endArrow=none;html=1;strokeWidth=4;fontSize=17;" parent="1" edge="1">
                    <mxGeometry width="50" height="50" relative="1" as="geometry">
                        <mxPoint x="979" y="-10" as="sourcePoint"/>
                        <mxPoint x="959" y="-50" as="targetPoint"/>
                    </mxGeometry>
                </mxCell>
                <mxCell id="sylwxvl_cKESi2oZsQH4-68" value="" style="endArrow=none;html=1;strokeWidth=4;fontSize=17;" parent="1" edge="1">
                    <mxGeometry width="50" height="50" relative="1" as="geometry">
                        <mxPoint x="966" y="-56" as="sourcePoint"/>
                        <mxPoint x="956" y="-98" as="targetPoint"/>
                        <Array as="points">
                            <mxPoint x="966" y="-80"/>
                        </Array>
                    </mxGeometry>
                </mxCell>
                <mxCell id="sylwxvl_cKESi2oZsQH4-69" value="" style="endArrow=none;html=1;strokeWidth=4;fontSize=17;" parent="1" edge="1">
                    <mxGeometry width="50" height="50" relative="1" as="geometry">
                        <mxPoint x="1080" y="-90" as="sourcePoint"/>
                        <mxPoint x="1120" y="-120" as="targetPoint"/>
                        <Array as="points">
                            <mxPoint x="1130" y="-110"/>
                        </Array>
                    </mxGeometry>
                </mxCell>
                <mxCell id="sylwxvl_cKESi2oZsQH4-70" value="118" style="text;html=1;strokeColor=none;fillColor=none;align=center;verticalAlign=middle;whiteSpace=wrap;rounded=0;fontSize=17;fontStyle=1" parent="1" vertex="1">
                    <mxGeometry x="851" y="-44.81" width="40" height="20" as="geometry"/>
                </mxCell>
                <mxCell id="sylwxvl_cKESi2oZsQH4-71" value="123" style="text;html=1;strokeColor=none;fillColor=none;align=center;verticalAlign=middle;whiteSpace=wrap;rounded=0;fontSize=17;fontStyle=1" parent="1" vertex="1">
                    <mxGeometry x="928" y="-39" width="40" height="20" as="geometry"/>
                </mxCell>
                <mxCell id="sylwxvl_cKESi2oZsQH4-72" value="122" style="text;html=1;strokeColor=none;fillColor=none;align=center;verticalAlign=middle;whiteSpace=wrap;rounded=0;fontSize=17;fontStyle=1" parent="1" vertex="1">
                    <mxGeometry x="976" y="-26" width="40" height="20" as="geometry"/>
                </mxCell>
                <mxCell id="sylwxvl_cKESi2oZsQH4-73" value="137" style="text;html=1;strokeColor=none;fillColor=none;align=center;verticalAlign=middle;whiteSpace=wrap;rounded=0;fontSize=17;fontStyle=1" parent="1" vertex="1">
                    <mxGeometry x="1121" y="-137" width="40" height="20" as="geometry"/>
                </mxCell>
                <mxCell id="sylwxvl_cKESi2oZsQH4-74" value="119" style="text;html=1;strokeColor=none;fillColor=none;align=center;verticalAlign=middle;whiteSpace=wrap;rounded=0;fontSize=17;fontStyle=1" parent="1" vertex="1">
                    <mxGeometry x="828" y="-117" width="40" height="20" as="geometry"/>
                </mxCell>
                <mxCell id="sylwxvl_cKESi2oZsQH4-75" value="117" style="text;html=1;strokeColor=none;fillColor=none;align=center;verticalAlign=middle;whiteSpace=wrap;rounded=0;fontSize=17;fontStyle=1" parent="1" vertex="1">
                    <mxGeometry x="836.31" y="-98" width="40" height="20" as="geometry"/>
                </mxCell>
                <mxCell id="sylwxvl_cKESi2oZsQH4-76" value="" style="endArrow=none;html=1;strokeWidth=4;fontSize=17;" parent="1" edge="1">
                    <mxGeometry width="50" height="50" relative="1" as="geometry">
                        <mxPoint x="820" y="-117" as="sourcePoint"/>
                        <mxPoint x="920" y="-150" as="targetPoint"/>
                        <Array as="points">
                            <mxPoint x="840" y="-127"/>
                            <mxPoint x="870" y="-130"/>
                        </Array>
                    </mxGeometry>
                </mxCell>
                <mxCell id="sylwxvl_cKESi2oZsQH4-77" value="116" style="text;html=1;strokeColor=none;fillColor=none;align=center;verticalAlign=middle;whiteSpace=wrap;rounded=0;fontSize=17;fontStyle=1" parent="1" vertex="1">
                    <mxGeometry x="916" y="-157" width="40" height="20" as="geometry"/>
                </mxCell>
                <mxCell id="sylwxvl_cKESi2oZsQH4-78" value="FIAPA" style="text;html=1;strokeColor=none;fillColor=none;align=center;verticalAlign=middle;whiteSpace=wrap;rounded=0;fontSize=13;fontStyle=1" parent="1" vertex="1">
                    <mxGeometry x="1071" y="-152" width="40" height="20" as="geometry"/>
                </mxCell>
                <mxCell id="sylwxvl_cKESi2oZsQH4-79" value="" style="rounded=1;whiteSpace=wrap;html=1;strokeWidth=3;fillColor=none;fontSize=13;" parent="1" vertex="1">
                    <mxGeometry x="1066" y="-152" width="50" height="20" as="geometry"/>
                </mxCell>
                <mxCell id="sylwxvl_cKESi2oZsQH4-52" value="" style="verticalLabelPosition=bottom;align=center;html=1;verticalAlign=top;pointerEvents=1;dashed=0;shape=mxgraph.pid2valves.valve;valveType=gate;defState=closed;strokeWidth=1;fillColor=none;fontSize=17;rotation=-120;" parent="1" vertex="1">
                    <mxGeometry x="1081" y="-99" width="20" height="10" as="geometry"/>
                </mxCell>
                <mxCell id="sylwxvl_cKESi2oZsQH4-81" value="&lt;u&gt;121&lt;/u&gt;" style="text;html=1;strokeColor=none;fillColor=none;align=center;verticalAlign=middle;whiteSpace=wrap;rounded=0;fontSize=17;" parent="1" vertex="1">
                    <mxGeometry x="950" y="-114" width="40" height="20" as="geometry"/>
                </mxCell>
                <mxCell id="sylwxvl_cKESi2oZsQH4-82" value="115" style="text;html=1;strokeColor=none;fillColor=none;align=center;verticalAlign=middle;whiteSpace=wrap;rounded=0;fontSize=17;fontStyle=4" parent="1" vertex="1">
                    <mxGeometry x="803.31" y="-171" width="40" height="20" as="geometry"/>
                </mxCell>
                <mxCell id="sylwxvl_cKESi2oZsQH4-83" value="113" style="text;html=1;strokeColor=none;fillColor=none;align=center;verticalAlign=middle;whiteSpace=wrap;rounded=0;fontSize=17;fontStyle=1" parent="1" vertex="1">
                    <mxGeometry x="782" y="-223" width="40" height="20" as="geometry"/>
                </mxCell>
                <mxCell id="sylwxvl_cKESi2oZsQH4-84" value="114" style="text;html=1;strokeColor=none;fillColor=none;align=center;verticalAlign=middle;whiteSpace=wrap;rounded=0;fontSize=17;fontStyle=1" parent="1" vertex="1">
                    <mxGeometry x="763.31" y="-257" width="40" height="20" as="geometry"/>
                </mxCell>
                <mxCell id="sylwxvl_cKESi2oZsQH4-85" value="&lt;font style=&quot;font-size: 13px&quot;&gt;&lt;b&gt;LA CAÑADA&lt;/b&gt;&lt;/font&gt;" style="text;html=1;strokeColor=none;fillColor=none;align=center;verticalAlign=middle;whiteSpace=wrap;rounded=0;fontSize=17;" parent="1" vertex="1">
                    <mxGeometry x="896" y="-238" width="100" height="20" as="geometry"/>
                </mxCell>
                <mxCell id="sylwxvl_cKESi2oZsQH4-86" value="" style="rounded=1;whiteSpace=wrap;html=1;strokeWidth=3;fillColor=none;fontSize=17;" parent="1" vertex="1">
                    <mxGeometry x="900" y="-240" width="90" height="30" as="geometry"/>
                </mxCell>
                <mxCell id="sylwxvl_cKESi2oZsQH4-87" value="" style="verticalLabelPosition=bottom;align=center;html=1;verticalAlign=top;pointerEvents=1;dashed=0;shape=mxgraph.pid2valves.valve;valveType=gate;defState=closed;strokeWidth=1;fillColor=none;fontSize=17;rotation=353;" parent="1" vertex="1">
                    <mxGeometry x="629" y="196" width="20" height="10" as="geometry"/>
                </mxCell>
                <mxCell id="sylwxvl_cKESi2oZsQH4-88" value="" style="verticalLabelPosition=bottom;align=center;html=1;verticalAlign=top;pointerEvents=1;dashed=0;shape=mxgraph.pid2valves.valve;valveType=gate;defState=closed;strokeWidth=1;fillColor=none;fontSize=17;rotation=251;" parent="1" vertex="1">
                    <mxGeometry x="623" y="289" width="20" height="10" as="geometry"/>
                </mxCell>
                <mxCell id="sylwxvl_cKESi2oZsQH4-91" value="" style="verticalLabelPosition=bottom;align=center;html=1;verticalAlign=top;pointerEvents=1;dashed=0;shape=mxgraph.pid2valves.valve;valveType=gate;defState=closed;strokeWidth=1;fillColor=none;fontSize=17;rotation=-30;" parent="1" vertex="1">
                    <mxGeometry x="645" y="-275" width="20" height="10" as="geometry"/>
                </mxCell>
                <mxCell id="sylwxvl_cKESi2oZsQH4-93" value="" style="verticalLabelPosition=bottom;align=center;html=1;verticalAlign=top;pointerEvents=1;dashed=0;shape=mxgraph.pid2valves.valve;valveType=gate;defState=closed;strokeWidth=1;fillColor=none;fontSize=17;rotation=-15;" parent="1" vertex="1">
                    <mxGeometry x="829" y="-335" width="20" height="10" as="geometry"/>
                </mxCell>
                <mxCell id="sylwxvl_cKESi2oZsQH4-95" value="" style="verticalLabelPosition=bottom;align=center;html=1;verticalAlign=top;pointerEvents=1;dashed=0;shape=mxgraph.pid2valves.valve;valveType=gate;defState=closed;strokeWidth=1;fillColor=none;fontSize=17;rotation=-15;" parent="1" vertex="1">
                    <mxGeometry x="424" y="-164" width="20" height="10" as="geometry"/>
                </mxCell>
                <mxCell id="sylwxvl_cKESi2oZsQH4-98" value="" style="endArrow=none;html=1;strokeWidth=4;fontSize=17;" parent="1" target="sylwxvl_cKESi2oZsQH4-89" edge="1">
                    <mxGeometry width="50" height="50" relative="1" as="geometry">
                        <mxPoint x="1051" y="220" as="sourcePoint"/>
                        <mxPoint x="1171" y="-78" as="targetPoint"/>
                        <Array as="points">
                            <mxPoint x="970" y="120"/>
                            <mxPoint x="940" y="70"/>
                            <mxPoint x="911"/>
                            <mxPoint x="890" y="20"/>
                            <mxPoint x="861" y="30"/>
                            <mxPoint x="861" y="-20"/>
                            <mxPoint x="851" y="-60"/>
                            <mxPoint x="821" y="-120"/>
                        </Array>
                    </mxGeometry>
                </mxCell>
                <mxCell id="sylwxvl_cKESi2oZsQH4-90" value="" style="verticalLabelPosition=bottom;align=center;html=1;verticalAlign=top;pointerEvents=1;dashed=0;shape=mxgraph.pid2valves.valve;valveType=gate;defState=closed;strokeWidth=1;fillColor=none;fontSize=17;rotation=338;" parent="1" vertex="1">
                    <mxGeometry x="726.62" y="-305" width="20" height="10" as="geometry"/>
                </mxCell>
                <mxCell id="sylwxvl_cKESi2oZsQH4-99" value="" style="endArrow=none;html=1;strokeWidth=4;fontSize=17;" parent="1" source="sylwxvl_cKESi2oZsQH4-89" target="sylwxvl_cKESi2oZsQH4-90" edge="1">
                    <mxGeometry width="50" height="50" relative="1" as="geometry">
                        <mxPoint x="740.8362092493687" y="-289.5078973971481" as="sourcePoint"/>
                        <mxPoint x="1171" y="-78" as="targetPoint"/>
                        <Array as="points"/>
                    </mxGeometry>
                </mxCell>
                <mxCell id="sylwxvl_cKESi2oZsQH4-100" value="" style="endArrow=none;html=1;strokeWidth=4;fontSize=17;" parent="1" edge="1">
                    <mxGeometry width="50" height="50" relative="1" as="geometry">
                        <mxPoint x="520" y="112.95238095238095" as="sourcePoint"/>
                        <mxPoint x="740" y="-291" as="targetPoint"/>
                        <Array as="points">
                            <mxPoint x="510" y="51"/>
                            <mxPoint x="480" y="-29"/>
                            <mxPoint x="420" y="-201"/>
                            <mxPoint x="530" y="-239"/>
                            <mxPoint x="620" y="-271"/>
                            <mxPoint x="670" y="-291"/>
                        </Array>
                    </mxGeometry>
                </mxCell>
                <mxCell id="sylwxvl_cKESi2oZsQH4-102" value="" style="endArrow=none;html=1;strokeWidth=4;fontSize=17;" parent="1" edge="1">
                    <mxGeometry width="50" height="50" relative="1" as="geometry">
                        <mxPoint x="1005" y="272.85714285714283" as="sourcePoint"/>
                        <mxPoint x="650" y="-283" as="targetPoint"/>
                        <Array as="points">
                            <mxPoint x="950" y="330"/>
                            <mxPoint x="807" y="190"/>
                            <mxPoint x="777" y="130"/>
                            <mxPoint x="746" y="50"/>
                            <mxPoint x="736"/>
                            <mxPoint x="710" y="-110"/>
                            <mxPoint x="676" y="-220"/>
                        </Array>
                    </mxGeometry>
                </mxCell>
                <mxCell id="sylwxvl_cKESi2oZsQH4-103" value="CASI" style="text;html=1;strokeColor=none;fillColor=none;align=center;verticalAlign=middle;whiteSpace=wrap;rounded=0;fontSize=13;fontStyle=1" parent="1" vertex="1">
                    <mxGeometry x="601" y="-224" width="40" height="20" as="geometry"/>
                </mxCell>
                <mxCell id="sylwxvl_cKESi2oZsQH4-104" value="" style="rounded=1;whiteSpace=wrap;html=1;strokeWidth=3;fillColor=none;fontSize=13;" parent="1" vertex="1">
                    <mxGeometry x="601" y="-223" width="40" height="20" as="geometry"/>
                </mxCell>
                <mxCell id="fkt52YcFWbxHf_qx1ULQ-1" value="" style="endArrow=none;html=1;strokeWidth=4;" parent="1" edge="1">
                    <mxGeometry width="50" height="50" relative="1" as="geometry">
                        <mxPoint x="870" y="343" as="sourcePoint"/>
                        <mxPoint x="930" y="310" as="targetPoint"/>
                        <Array as="points">
                            <mxPoint x="900" y="330"/>
                        </Array>
                    </mxGeometry>
                </mxCell>
                <mxCell id="fkt52YcFWbxHf_qx1ULQ-2" value="" style="endArrow=none;html=1;strokeWidth=4;" parent="1" edge="1">
                    <mxGeometry width="50" height="50" relative="1" as="geometry">
                        <mxPoint x="741" y="33" as="sourcePoint"/>
                        <mxPoint x="841" y="70" as="targetPoint"/>
                        <Array as="points">
                            <mxPoint x="818" y="33"/>
                            <mxPoint x="818" y="70"/>
                        </Array>
                    </mxGeometry>
                </mxCell>
                <mxCell id="fkt52YcFWbxHf_qx1ULQ-3" value="" style="endArrow=none;html=1;strokeWidth=4;" parent="1" edge="1">
                    <mxGeometry width="50" height="50" relative="1" as="geometry">
                        <mxPoint x="707" y="-118" as="sourcePoint"/>
                        <mxPoint x="772" y="-100" as="targetPoint"/>
                    </mxGeometry>
                </mxCell>
                <mxCell id="fkt52YcFWbxHf_qx1ULQ-4" value="" style="endArrow=none;html=1;strokeWidth=4;" parent="1" edge="1">
                    <mxGeometry width="50" height="50" relative="1" as="geometry">
                        <mxPoint x="697" y="-156" as="sourcePoint"/>
                        <mxPoint x="650" y="-114" as="targetPoint"/>
                        <Array as="points">
                            <mxPoint x="640" y="-160"/>
                        </Array>
                    </mxGeometry>
                </mxCell>
                <mxCell id="sylwxvl_cKESi2oZsQH4-92" value="" style="verticalLabelPosition=bottom;align=center;html=1;verticalAlign=top;pointerEvents=1;dashed=0;shape=mxgraph.pid2valves.valve;valveType=gate;defState=closed;strokeWidth=1;fillColor=none;fontSize=17;rotation=-110;" parent="1" vertex="1">
                    <mxGeometry x="631" y="-286" width="20" height="10" as="geometry"/>
                </mxCell>
                <mxCell id="fkt52YcFWbxHf_qx1ULQ-8" value="" style="endArrow=none;html=1;strokeWidth=4;" parent="1" edge="1">
                    <mxGeometry width="50" height="50" relative="1" as="geometry">
                        <mxPoint x="841" y="-270" as="sourcePoint"/>
                        <mxPoint x="837" y="-338" as="targetPoint"/>
                        <Array as="points">
                            <mxPoint x="823" y="-298"/>
                            <mxPoint x="853" y="-308"/>
                            <mxPoint x="840" y="-328"/>
                        </Array>
                    </mxGeometry>
                </mxCell>
                <mxCell id="fkt52YcFWbxHf_qx1ULQ-9" value="145-147" style="text;html=1;strokeColor=none;fillColor=none;align=center;verticalAlign=middle;whiteSpace=wrap;rounded=0;fontStyle=1;fontSize=17;" parent="1" vertex="1">
                    <mxGeometry x="834" y="-286" width="70" height="20" as="geometry"/>
                </mxCell>
                <mxCell id="fkt52YcFWbxHf_qx1ULQ-10" value="112-109" style="text;html=1;strokeColor=none;fillColor=none;align=center;verticalAlign=middle;whiteSpace=wrap;rounded=0;fontSize=17;fontStyle=1" parent="1" vertex="1">
                    <mxGeometry x="662" y="-319" width="70" height="20" as="geometry"/>
                </mxCell>
                <mxCell id="fkt52YcFWbxHf_qx1ULQ-11" value="111" style="text;html=1;strokeColor=none;fillColor=none;align=center;verticalAlign=middle;whiteSpace=wrap;rounded=0;fontSize=17;fontStyle=1" parent="1" vertex="1">
                    <mxGeometry x="777.31" y="-355" width="40" height="20" as="geometry"/>
                </mxCell>
                <mxCell id="fkt52YcFWbxHf_qx1ULQ-12" value="146" style="text;html=1;strokeColor=none;fillColor=none;align=center;verticalAlign=middle;whiteSpace=wrap;rounded=0;fontSize=17;fontStyle=1" parent="1" vertex="1">
                    <mxGeometry x="862" y="-369" width="40" height="20" as="geometry"/>
                </mxCell>
                <mxCell id="fkt52YcFWbxHf_qx1ULQ-13" value="148" style="text;html=1;strokeColor=none;fillColor=none;align=center;verticalAlign=middle;whiteSpace=wrap;rounded=0;fontSize=17;fontStyle=1" parent="1" vertex="1">
                    <mxGeometry x="924" y="-367" width="40" height="20" as="geometry"/>
                </mxCell>
                <mxCell id="fkt52YcFWbxHf_qx1ULQ-14" value="110" style="text;html=1;strokeColor=none;fillColor=none;align=center;verticalAlign=middle;whiteSpace=wrap;rounded=0;fontSize=17;fontStyle=1" parent="1" vertex="1">
                    <mxGeometry x="661" y="-262" width="40" height="20" as="geometry"/>
                </mxCell>
                <mxCell id="fkt52YcFWbxHf_qx1ULQ-15" value="69" style="text;html=1;strokeColor=none;fillColor=none;align=center;verticalAlign=middle;whiteSpace=wrap;rounded=0;fontSize=17;fontStyle=1" parent="1" vertex="1">
                    <mxGeometry x="579" y="-261" width="40" height="20" as="geometry"/>
                </mxCell>
                <mxCell id="fkt52YcFWbxHf_qx1ULQ-16" value="71" style="text;html=1;strokeColor=none;fillColor=none;align=center;verticalAlign=middle;whiteSpace=wrap;rounded=0;fontSize=17;fontStyle=1" parent="1" vertex="1">
                    <mxGeometry x="608" y="-170" width="40" height="20" as="geometry"/>
                </mxCell>
                <mxCell id="fkt52YcFWbxHf_qx1ULQ-17" value="108" style="text;html=1;strokeColor=none;fillColor=none;align=center;verticalAlign=middle;whiteSpace=wrap;rounded=0;fontSize=17;fontStyle=1" parent="1" vertex="1">
                    <mxGeometry x="681" y="-223" width="40" height="20" as="geometry"/>
                </mxCell>
                <mxCell id="fkt52YcFWbxHf_qx1ULQ-18" value="LOS PICOS" style="text;html=1;strokeColor=none;fillColor=none;align=center;verticalAlign=middle;whiteSpace=wrap;rounded=0;fontSize=13;fontStyle=1" parent="1" vertex="1">
                    <mxGeometry x="709" y="-191" width="40" height="20" as="geometry"/>
                </mxCell>
                <mxCell id="fkt52YcFWbxHf_qx1ULQ-19" value="" style="rounded=1;html=1;fontSize=13;noLabel=1;fontColor=none;whiteSpace=wrap;fillColor=none;strokeWidth=3;" parent="1" vertex="1">
                    <mxGeometry x="704" y="-201" width="50" height="40" as="geometry"/>
                </mxCell>
                <mxCell id="fkt52YcFWbxHf_qx1ULQ-20" value="72" style="text;html=1;strokeColor=none;fillColor=none;align=center;verticalAlign=middle;whiteSpace=wrap;rounded=0;fontSize=17;fontColor=none;fontStyle=1" parent="1" vertex="1">
                    <mxGeometry x="632" y="-112" width="40" height="20" as="geometry"/>
                </mxCell>
                <mxCell id="fkt52YcFWbxHf_qx1ULQ-21" value="105" style="text;html=1;strokeColor=none;fillColor=none;align=center;verticalAlign=middle;whiteSpace=wrap;rounded=0;fontSize=17;fontColor=none;fontStyle=1" parent="1" vertex="1">
                    <mxGeometry x="716" y="-104" width="40" height="20" as="geometry"/>
                </mxCell>
                <mxCell id="fkt52YcFWbxHf_qx1ULQ-22" value="107" style="text;html=1;strokeColor=none;fillColor=none;align=center;verticalAlign=middle;whiteSpace=wrap;rounded=0;fontSize=17;fontColor=none;fontStyle=1" parent="1" vertex="1">
                    <mxGeometry x="770" y="-114" width="40" height="20" as="geometry"/>
                </mxCell>
                <mxCell id="fkt52YcFWbxHf_qx1ULQ-23" value="74" style="text;html=1;strokeColor=none;fillColor=none;align=center;verticalAlign=middle;whiteSpace=wrap;rounded=0;fontSize=17;fontColor=none;fontStyle=1" parent="1" vertex="1">
                    <mxGeometry x="716" y="-70" width="40" height="20" as="geometry"/>
                </mxCell>
                <mxCell id="fkt52YcFWbxHf_qx1ULQ-24" value="76" style="text;html=1;strokeColor=none;fillColor=none;align=center;verticalAlign=middle;whiteSpace=wrap;rounded=0;fontSize=17;fontColor=none;fontStyle=1" parent="1" vertex="1">
                    <mxGeometry x="723" y="-46" width="40" height="20" as="geometry"/>
                </mxCell>
                <mxCell id="fkt52YcFWbxHf_qx1ULQ-25" value="78" style="text;html=1;strokeColor=none;fillColor=none;align=center;verticalAlign=middle;whiteSpace=wrap;rounded=0;fontSize=17;fontColor=none;fontStyle=1" parent="1" vertex="1">
                    <mxGeometry x="730" y="-12" width="40" height="20" as="geometry"/>
                </mxCell>
                <mxCell id="fkt52YcFWbxHf_qx1ULQ-26" value="104" style="text;html=1;strokeColor=none;fillColor=none;align=center;verticalAlign=middle;whiteSpace=wrap;rounded=0;fontSize=17;fontColor=none;fontStyle=1" parent="1" vertex="1">
                    <mxGeometry x="796.31" y="12" width="40" height="20" as="geometry"/>
                </mxCell>
                <mxCell id="fkt52YcFWbxHf_qx1ULQ-27" value="103" style="text;html=1;strokeColor=none;fillColor=none;align=center;verticalAlign=middle;whiteSpace=wrap;rounded=0;fontSize=17;fontColor=none;fontStyle=1" parent="1" vertex="1">
                    <mxGeometry x="836.31" y="60" width="40" height="20" as="geometry"/>
                </mxCell>
                <mxCell id="fkt52YcFWbxHf_qx1ULQ-28" value="CRUZ DE MARTOS" style="text;html=1;strokeColor=none;fillColor=none;align=center;verticalAlign=middle;whiteSpace=wrap;rounded=0;fontSize=13;fontColor=none;fontStyle=1" parent="1" vertex="1">
                    <mxGeometry x="773.6199999999999" y="-20" width="62.69" height="20" as="geometry"/>
                </mxCell>
                <mxCell id="fkt52YcFWbxHf_qx1ULQ-29" value="" style="rounded=1;whiteSpace=wrap;html=1;strokeWidth=3;fillColor=none;fontSize=13;fontColor=none;" parent="1" vertex="1">
                    <mxGeometry x="770" y="-30" width="70" height="40" as="geometry"/>
                </mxCell>
                <mxCell id="fkt52YcFWbxHf_qx1ULQ-30" value="" style="endArrow=classic;html=1;strokeWidth=2;fontSize=13;fontColor=none;exitX=0.25;exitY=1;exitDx=0;exitDy=0;" parent="1" source="fkt52YcFWbxHf_qx1ULQ-29" edge="1">
                    <mxGeometry width="50" height="50" relative="1" as="geometry">
                        <mxPoint x="651" y="-4" as="sourcePoint"/>
                        <mxPoint x="783" y="46" as="targetPoint"/>
                    </mxGeometry>
                </mxCell>
                <mxCell id="fkt52YcFWbxHf_qx1ULQ-31" value="134" style="text;html=1;strokeColor=none;fillColor=none;align=center;verticalAlign=middle;whiteSpace=wrap;rounded=0;fontSize=17;fontColor=none;fontStyle=1" parent="1" vertex="1">
                    <mxGeometry x="436" y="-235" width="40" height="20" as="geometry"/>
                </mxCell>
                <mxCell id="fkt52YcFWbxHf_qx1ULQ-32" value="4" style="text;html=1;strokeColor=none;fillColor=none;align=center;verticalAlign=middle;whiteSpace=wrap;rounded=0;fontSize=17;fontColor=none;fontStyle=1" parent="1" vertex="1">
                    <mxGeometry x="438" y="-203" width="40" height="20" as="geometry"/>
                </mxCell>
                <mxCell id="fkt52YcFWbxHf_qx1ULQ-33" value="" style="endArrow=none;html=1;strokeWidth=4;fontSize=17;fontColor=none;" parent="1" source="sylwxvl_cKESi2oZsQH4-94" edge="1">
                    <mxGeometry width="50" height="50" relative="1" as="geometry">
                        <mxPoint x="428" y="-168" as="sourcePoint"/>
                        <mxPoint x="833" y="482.6896551724138" as="targetPoint"/>
                        <Array as="points">
                            <mxPoint x="518" y="-198"/>
                            <mxPoint x="568" y="-68"/>
                            <mxPoint x="608" y="32"/>
                            <mxPoint x="618" y="42"/>
                            <mxPoint x="630" y="42"/>
                            <mxPoint x="650" y="100"/>
                            <mxPoint x="630" y="100"/>
                            <mxPoint x="640" y="220"/>
                            <mxPoint x="630" y="230"/>
                            <mxPoint x="640" y="250"/>
                            <mxPoint x="640" y="290"/>
                            <mxPoint x="660" y="330"/>
                            <mxPoint x="720" y="490"/>
                            <mxPoint x="770" y="483"/>
                        </Array>
                    </mxGeometry>
                </mxCell>
                <mxCell id="sylwxvl_cKESi2oZsQH4-94" value="" style="verticalLabelPosition=bottom;align=center;html=1;verticalAlign=top;pointerEvents=1;dashed=0;shape=mxgraph.pid2valves.valve;valveType=gate;defState=closed;strokeWidth=1;fillColor=none;fontSize=17;rotation=249;" parent="1" vertex="1">
                    <mxGeometry x="435.99999999999994" y="-180" width="20" height="10" as="geometry"/>
                </mxCell>
                <mxCell id="fkt52YcFWbxHf_qx1ULQ-34" value="" style="endArrow=none;html=1;strokeWidth=4;fontSize=17;fontColor=none;" parent="1" target="sylwxvl_cKESi2oZsQH4-94" edge="1">
                    <mxGeometry width="50" height="50" relative="1" as="geometry">
                        <mxPoint x="428" y="-168" as="sourcePoint"/>
                        <mxPoint x="833" y="482.68965517241395" as="targetPoint"/>
                        <Array as="points"/>
                    </mxGeometry>
                </mxCell>
                <mxCell id="fkt52YcFWbxHf_qx1ULQ-35" value="68" style="text;html=1;strokeColor=none;fillColor=none;align=center;verticalAlign=middle;whiteSpace=wrap;rounded=0;fontSize=17;fontColor=none;fontStyle=1" parent="1" vertex="1">
                    <mxGeometry x="481" y="-215" width="40" height="20" as="geometry"/>
                </mxCell>
                <mxCell id="fkt52YcFWbxHf_qx1ULQ-36" value="73" style="text;html=1;strokeColor=none;fillColor=none;align=center;verticalAlign=middle;whiteSpace=wrap;rounded=0;fontSize=17;fontColor=none;fontStyle=1" parent="1" vertex="1">
                    <mxGeometry x="521" y="-190" width="40" height="20" as="geometry"/>
                </mxCell>
                <mxCell id="fkt52YcFWbxHf_qx1ULQ-37" value="67" style="text;html=1;strokeColor=none;fillColor=none;align=center;verticalAlign=middle;whiteSpace=wrap;rounded=0;fontSize=17;fontColor=none;fontStyle=1" parent="1" vertex="1">
                    <mxGeometry x="539" y="-151" width="40" height="20" as="geometry"/>
                </mxCell>
                <mxCell id="fkt52YcFWbxHf_qx1ULQ-38" value="66" style="text;html=1;strokeColor=none;fillColor=none;align=center;verticalAlign=middle;whiteSpace=wrap;rounded=0;fontSize=17;fontColor=none;fontStyle=1" parent="1" vertex="1">
                    <mxGeometry x="556" y="-104" width="40" height="20" as="geometry"/>
                </mxCell>
                <mxCell id="fkt52YcFWbxHf_qx1ULQ-39" value="75" style="text;html=1;strokeColor=none;fillColor=none;align=center;verticalAlign=middle;whiteSpace=wrap;rounded=0;fontSize=17;fontColor=none;fontStyle=1" parent="1" vertex="1">
                    <mxGeometry x="567" y="-70" width="40" height="20" as="geometry"/>
                </mxCell>
                <mxCell id="fkt52YcFWbxHf_qx1ULQ-40" value="64" style="text;html=1;strokeColor=none;fillColor=none;align=center;verticalAlign=middle;whiteSpace=wrap;rounded=0;fontSize=17;fontColor=none;fontStyle=1" parent="1" vertex="1">
                    <mxGeometry x="586" y="-32" width="40" height="20" as="geometry"/>
                </mxCell>
                <mxCell id="fkt52YcFWbxHf_qx1ULQ-41" value="77" style="text;html=1;strokeColor=none;fillColor=none;align=center;verticalAlign=middle;whiteSpace=wrap;rounded=0;fontSize=17;fontColor=none;fontStyle=1" parent="1" vertex="1">
                    <mxGeometry x="579" y="30" width="40" height="20" as="geometry"/>
                </mxCell>
                <mxCell id="fkt52YcFWbxHf_qx1ULQ-42" value="61" style="text;html=1;strokeColor=none;fillColor=none;align=center;verticalAlign=middle;whiteSpace=wrap;rounded=0;fontSize=17;fontColor=none;fontStyle=1" parent="1" vertex="1">
                    <mxGeometry x="627" y="21" width="40" height="20" as="geometry"/>
                </mxCell>
                <mxCell id="fkt52YcFWbxHf_qx1ULQ-43" value="252" style="text;html=1;strokeColor=none;fillColor=none;align=center;verticalAlign=middle;whiteSpace=wrap;rounded=0;fontSize=17;fontColor=none;fontStyle=1" parent="1" vertex="1">
                    <mxGeometry x="641" y="60" width="40" height="20" as="geometry"/>
                </mxCell>
                <mxCell id="fkt52YcFWbxHf_qx1ULQ-44" value="59" style="text;html=1;strokeColor=none;fillColor=none;align=center;verticalAlign=middle;whiteSpace=wrap;rounded=0;fontSize=17;fontColor=none;fontStyle=1" parent="1" vertex="1">
                    <mxGeometry x="506" y="53" width="40" height="20" as="geometry"/>
                </mxCell>
                <mxCell id="fkt52YcFWbxHf_qx1ULQ-45" value="63" style="text;html=1;strokeColor=none;fillColor=none;align=center;verticalAlign=middle;whiteSpace=wrap;rounded=0;fontSize=17;fontColor=none;fontStyle=1" parent="1" vertex="1">
                    <mxGeometry x="517" y="94" width="40" height="20" as="geometry"/>
                </mxCell>
                <mxCell id="fkt52YcFWbxHf_qx1ULQ-46" value="60" style="text;html=1;strokeColor=none;fillColor=none;align=center;verticalAlign=middle;whiteSpace=wrap;rounded=0;fontSize=17;fontColor=none;fontStyle=1" parent="1" vertex="1">
                    <mxGeometry x="625" y="106.38" width="40" height="20" as="geometry"/>
                </mxCell>
                <mxCell id="fkt52YcFWbxHf_qx1ULQ-47" value="58" style="text;html=1;strokeColor=none;fillColor=none;align=center;verticalAlign=middle;whiteSpace=wrap;rounded=0;fontSize=17;fontColor=none;fontStyle=1" parent="1" vertex="1">
                    <mxGeometry x="546" y="172" width="40" height="20" as="geometry"/>
                </mxCell>
                <mxCell id="fkt52YcFWbxHf_qx1ULQ-48" value="57" style="text;html=1;strokeColor=none;fillColor=none;align=center;verticalAlign=middle;whiteSpace=wrap;rounded=0;fontSize=17;fontColor=none;fontStyle=1" parent="1" vertex="1">
                    <mxGeometry x="596" y="160" width="40" height="20" as="geometry"/>
                </mxCell>
                <mxCell id="fkt52YcFWbxHf_qx1ULQ-50" value="" style="endArrow=none;html=1;strokeWidth=4;fontSize=17;fontColor=none;" parent="1" edge="1">
                    <mxGeometry width="50" height="50" relative="1" as="geometry">
                        <mxPoint x="582" y="186" as="sourcePoint"/>
                        <mxPoint x="638" y="180" as="targetPoint"/>
                    </mxGeometry>
                </mxCell>
                <mxCell id="fkt52YcFWbxHf_qx1ULQ-51" value="" style="endArrow=none;html=1;strokeWidth=4;fontSize=17;fontColor=none;" parent="1" edge="1">
                    <mxGeometry width="50" height="50" relative="1" as="geometry">
                        <mxPoint x="870" y="392" as="sourcePoint"/>
                        <mxPoint x="634" y="152" as="targetPoint"/>
                        <Array as="points">
                            <mxPoint x="850" y="410"/>
                            <mxPoint x="820" y="420"/>
                            <mxPoint x="800" y="390"/>
                            <mxPoint x="810" y="380"/>
                            <mxPoint x="740" y="322"/>
                            <mxPoint x="728" y="242"/>
                            <mxPoint x="678" y="192"/>
                        </Array>
                    </mxGeometry>
                </mxCell>
                <mxCell id="fkt52YcFWbxHf_qx1ULQ-52" value="" style="endArrow=none;html=1;strokeWidth=4;fontSize=17;fontColor=none;" parent="1" edge="1">
                    <mxGeometry width="50" height="50" relative="1" as="geometry">
                        <mxPoint x="665" y="495" as="sourcePoint"/>
                        <mxPoint x="640" y="292" as="targetPoint"/>
                        <Array as="points">
                            <mxPoint x="640" y="490"/>
                            <mxPoint x="620" y="490"/>
                            <mxPoint x="610" y="420"/>
                            <mxPoint x="580" y="320"/>
                            <mxPoint x="580" y="314"/>
                        </Array>
                    </mxGeometry>
                </mxCell>
                <mxCell id="fkt52YcFWbxHf_qx1ULQ-54" value="247" style="text;html=1;strokeColor=none;fillColor=none;align=center;verticalAlign=middle;whiteSpace=wrap;rounded=0;fontSize=17;fontColor=none;fontStyle=1" parent="1" vertex="1">
                    <mxGeometry x="651" y="152" width="40" height="20" as="geometry"/>
                </mxCell>
                <mxCell id="fkt52YcFWbxHf_qx1ULQ-55" value="84" style="text;html=1;strokeColor=none;fillColor=none;align=center;verticalAlign=middle;whiteSpace=wrap;rounded=0;fontSize=17;fontColor=none;fontStyle=1" parent="1" vertex="1">
                    <mxGeometry x="691" y="192" width="40" height="20" as="geometry"/>
                </mxCell>
                <mxCell id="fkt52YcFWbxHf_qx1ULQ-56" value="56-53" style="text;html=1;strokeColor=none;fillColor=none;align=center;verticalAlign=middle;whiteSpace=wrap;rounded=0;fontSize=17;fontColor=none;fontStyle=1" parent="1" vertex="1">
                    <mxGeometry x="718" y="219" width="50" height="20" as="geometry"/>
                </mxCell>
                <mxCell id="fkt52YcFWbxHf_qx1ULQ-57" value="" style="verticalLabelPosition=bottom;align=center;html=1;verticalAlign=top;pointerEvents=1;dashed=0;shape=mxgraph.pid2valves.valve;valveType=gate;defState=closed;strokeWidth=1;fillColor=none;fontSize=17;rotation=0;" parent="1" vertex="1">
                    <mxGeometry x="965" y="-473" width="20" height="10" as="geometry"/>
                </mxCell>
                <mxCell id="fkt52YcFWbxHf_qx1ULQ-58" value="" style="verticalLabelPosition=bottom;align=center;html=1;verticalAlign=top;pointerEvents=1;dashed=0;shape=mxgraph.pid2valves.valve;valveType=gate;defState=closed;strokeWidth=1;fillColor=none;fontSize=17;rotation=276;" parent="1" vertex="1">
                    <mxGeometry x="614" y="-616" width="20" height="10" as="geometry"/>
                </mxCell>
                <mxCell id="fkt52YcFWbxHf_qx1ULQ-59" value="" style="verticalLabelPosition=bottom;align=center;html=1;verticalAlign=top;pointerEvents=1;dashed=0;shape=mxgraph.pid2valves.valve;valveType=gate;defState=closed;strokeWidth=1;fillColor=none;fontSize=17;rotation=316;" parent="1" vertex="1">
                    <mxGeometry x="662" y="180" width="20" height="10" as="geometry"/>
                </mxCell>
                <mxCell id="fkt52YcFWbxHf_qx1ULQ-62" value="55" style="text;html=1;strokeColor=none;fillColor=none;align=center;verticalAlign=middle;whiteSpace=wrap;rounded=0;fontSize=17;fontColor=none;fontStyle=1" parent="1" vertex="1">
                    <mxGeometry x="605" y="244" width="40" height="20" as="geometry"/>
                </mxCell>
                <mxCell id="fkt52YcFWbxHf_qx1ULQ-63" value="51" style="text;html=1;strokeColor=none;fillColor=none;align=center;verticalAlign=middle;whiteSpace=wrap;rounded=0;fontSize=17;fontColor=none;fontStyle=1" parent="1" vertex="1">
                    <mxGeometry x="631" y="224" width="40" height="20" as="geometry"/>
                </mxCell>
                <mxCell id="fkt52YcFWbxHf_qx1ULQ-64" value="85" style="text;html=1;strokeColor=none;fillColor=none;align=center;verticalAlign=middle;whiteSpace=wrap;rounded=0;fontSize=17;fontColor=none;fontStyle=1" parent="1" vertex="1">
                    <mxGeometry x="730" y="271" width="40" height="20" as="geometry"/>
                </mxCell>
                <mxCell id="fkt52YcFWbxHf_qx1ULQ-65" value="87" style="text;html=1;strokeColor=none;fillColor=none;align=center;verticalAlign=middle;whiteSpace=wrap;rounded=0;fontSize=17;fontColor=none;fontStyle=4" parent="1" vertex="1">
                    <mxGeometry x="746.62" y="311" width="40" height="20" as="geometry"/>
                </mxCell>
                <mxCell id="fkt52YcFWbxHf_qx1ULQ-66" value="52" style="text;html=1;strokeColor=none;fillColor=none;align=center;verticalAlign=middle;whiteSpace=wrap;rounded=0;fontSize=17;fontColor=none;fontStyle=1" parent="1" vertex="1">
                    <mxGeometry x="612" y="304" width="40" height="20" as="geometry"/>
                </mxCell>
                <mxCell id="fkt52YcFWbxHf_qx1ULQ-67" value="43" style="text;html=1;strokeColor=none;fillColor=none;align=center;verticalAlign=middle;whiteSpace=wrap;rounded=0;fontSize=17;fontColor=none;fontStyle=1" parent="1" vertex="1">
                    <mxGeometry x="573" y="311" width="40" height="20" as="geometry"/>
                </mxCell>
                <mxCell id="fkt52YcFWbxHf_qx1ULQ-68" value="&lt;b&gt;50&lt;/b&gt;" style="text;html=1;strokeColor=none;fillColor=none;align=center;verticalAlign=middle;whiteSpace=wrap;rounded=0;fontSize=17;fontColor=none;" parent="1" vertex="1">
                    <mxGeometry x="660" y="331" width="40" height="20" as="geometry"/>
                </mxCell>
                <mxCell id="fkt52YcFWbxHf_qx1ULQ-69" value="262" style="text;html=1;strokeColor=none;fillColor=none;align=center;verticalAlign=middle;whiteSpace=wrap;rounded=0;fontSize=17;fontColor=none;fontStyle=1" parent="1" vertex="1">
                    <mxGeometry x="676" y="356" width="40" height="20" as="geometry"/>
                </mxCell>
                <mxCell id="fkt52YcFWbxHf_qx1ULQ-70" value="47" style="text;html=1;strokeColor=none;fillColor=none;align=center;verticalAlign=middle;whiteSpace=wrap;rounded=0;fontSize=17;fontColor=none;fontStyle=1" parent="1" vertex="1">
                    <mxGeometry x="648" y="302" width="40" height="20" as="geometry"/>
                </mxCell>
                <mxCell id="fkt52YcFWbxHf_qx1ULQ-71" value="42" style="text;html=1;strokeColor=none;fillColor=none;align=center;verticalAlign=middle;whiteSpace=wrap;rounded=0;fontSize=17;fontColor=none;fontStyle=1" parent="1" vertex="1">
                    <mxGeometry x="592" y="366" width="40" height="20" as="geometry"/>
                </mxCell>
                <mxCell id="fkt52YcFWbxHf_qx1ULQ-72" value="41" style="text;html=1;strokeColor=none;fillColor=none;align=center;verticalAlign=middle;whiteSpace=wrap;rounded=0;fontSize=17;fontColor=none;fontStyle=4" parent="1" vertex="1">
                    <mxGeometry x="601" y="402.32" width="40" height="20" as="geometry"/>
                </mxCell>
                <mxCell id="fkt52YcFWbxHf_qx1ULQ-73" value="46" style="text;html=1;strokeColor=none;fillColor=none;align=center;verticalAlign=middle;whiteSpace=wrap;rounded=0;fontSize=17;fontColor=none;fontStyle=1" parent="1" vertex="1">
                    <mxGeometry x="608" y="443" width="40" height="20" as="geometry"/>
                </mxCell>
                <mxCell id="fkt52YcFWbxHf_qx1ULQ-74" value="49" style="text;html=1;strokeColor=none;fillColor=none;align=center;verticalAlign=middle;whiteSpace=wrap;rounded=0;fontSize=17;fontColor=none;fontStyle=1" parent="1" vertex="1">
                    <mxGeometry x="673" y="449" width="40" height="20" as="geometry"/>
                </mxCell>
                <mxCell id="fkt52YcFWbxHf_qx1ULQ-75" value="44" style="text;html=1;strokeColor=none;fillColor=none;align=center;verticalAlign=middle;whiteSpace=wrap;rounded=0;fontSize=17;fontColor=none;fontStyle=1" parent="1" vertex="1">
                    <mxGeometry x="642" y="475" width="40" height="20" as="geometry"/>
                </mxCell>
                <mxCell id="fkt52YcFWbxHf_qx1ULQ-76" value="45" style="text;html=1;strokeColor=none;fillColor=none;align=center;verticalAlign=middle;whiteSpace=wrap;rounded=0;fontSize=17;fontColor=none;fontStyle=1" parent="1" vertex="1">
                    <mxGeometry x="685" y="470" width="40" height="20" as="geometry"/>
                </mxCell>
                <mxCell id="fkt52YcFWbxHf_qx1ULQ-77" value="162" style="text;html=1;strokeColor=none;fillColor=none;align=center;verticalAlign=middle;whiteSpace=wrap;rounded=0;fontSize=17;fontColor=none;fontStyle=1" parent="1" vertex="1">
                    <mxGeometry x="725" y="463" width="40" height="20" as="geometry"/>
                </mxCell>
                <mxCell id="fkt52YcFWbxHf_qx1ULQ-78" value="65" style="text;html=1;strokeColor=none;fillColor=none;align=center;verticalAlign=middle;whiteSpace=wrap;rounded=0;fontSize=17;fontColor=none;fontStyle=1" parent="1" vertex="1">
                    <mxGeometry x="763" y="481.38" width="40" height="20" as="geometry"/>
                </mxCell>
                <mxCell id="fkt52YcFWbxHf_qx1ULQ-79" value="93" style="text;html=1;strokeColor=none;fillColor=none;align=center;verticalAlign=middle;whiteSpace=wrap;rounded=0;fontSize=17;fontColor=none;fontStyle=1" parent="1" vertex="1">
                    <mxGeometry x="817.31" y="483" width="40" height="20" as="geometry"/>
                </mxCell>
                <mxCell id="fkt52YcFWbxHf_qx1ULQ-80" value="90" style="text;html=1;strokeColor=none;fillColor=none;align=center;verticalAlign=middle;whiteSpace=wrap;rounded=0;fontSize=17;fontColor=none;fontStyle=1" parent="1" vertex="1">
                    <mxGeometry x="782" y="406.62" width="40" height="20" as="geometry"/>
                </mxCell>
                <mxCell id="fkt52YcFWbxHf_qx1ULQ-81" value="36" style="text;html=1;strokeColor=none;fillColor=none;align=center;verticalAlign=middle;whiteSpace=wrap;rounded=0;fontSize=17;fontColor=none;fontStyle=1" parent="1" vertex="1">
                    <mxGeometry x="770" y="386" width="40" height="20" as="geometry"/>
                </mxCell>
                <mxCell id="fkt52YcFWbxHf_qx1ULQ-82" value="92" style="text;html=1;strokeColor=none;fillColor=none;align=center;verticalAlign=middle;whiteSpace=wrap;rounded=0;fontSize=17;fontColor=none;fontStyle=1" parent="1" vertex="1">
                    <mxGeometry x="840" y="405.62" width="40" height="20" as="geometry"/>
                </mxCell>
                <mxCell id="fkt52YcFWbxHf_qx1ULQ-83" value="62" style="text;html=1;strokeColor=none;fillColor=none;align=center;verticalAlign=middle;whiteSpace=wrap;rounded=0;fontSize=17;fontColor=none;fontStyle=1" parent="1" vertex="1">
                    <mxGeometry x="866" y="384.62" width="40" height="20" as="geometry"/>
                </mxCell>
                <mxCell id="fkt52YcFWbxHf_qx1ULQ-84" value="86" style="text;html=1;strokeColor=none;fillColor=none;align=center;verticalAlign=middle;whiteSpace=wrap;rounded=0;fontSize=17;fontColor=none;fontStyle=1" parent="1" vertex="1">
                    <mxGeometry x="775.62" y="337.38" width="40" height="20" as="geometry"/>
                </mxCell>
                <mxCell id="fkt52YcFWbxHf_qx1ULQ-85" value="79" style="text;html=1;strokeColor=none;fillColor=none;align=center;verticalAlign=middle;whiteSpace=wrap;rounded=0;fontSize=17;fontColor=none;fontStyle=1" parent="1" vertex="1">
                    <mxGeometry x="681" y="21" width="40" height="20" as="geometry"/>
                </mxCell>
                <mxCell id="fkt52YcFWbxHf_qx1ULQ-86" value="" style="endArrow=none;html=1;strokeWidth=4;fontSize=17;fontColor=none;" parent="1" edge="1">
                    <mxGeometry width="50" height="50" relative="1" as="geometry">
                        <mxPoint x="632" y="45" as="sourcePoint"/>
                        <mxPoint x="697" y="42" as="targetPoint"/>
                    </mxGeometry>
                </mxCell>
                <mxCell id="fkt52YcFWbxHf_qx1ULQ-87" value="70" style="text;html=1;strokeColor=none;fillColor=none;align=center;verticalAlign=middle;whiteSpace=wrap;rounded=0;fontSize=17;fontColor=none;fontStyle=1" parent="1" vertex="1">
                    <mxGeometry x="546" y="-250" width="40" height="20" as="geometry"/>
                </mxCell>
                <mxCell id="fkt52YcFWbxHf_qx1ULQ-88" value="253" style="text;html=1;strokeColor=none;fillColor=none;align=center;verticalAlign=middle;whiteSpace=wrap;rounded=0;fontSize=17;fontColor=none;fontStyle=1" parent="1" vertex="1">
                    <mxGeometry x="490" y="-255" width="40" height="20" as="geometry"/>
                </mxCell>
                <mxCell id="fkt52YcFWbxHf_qx1ULQ-89" value="&lt;font style=&quot;font-size: 13px&quot;&gt;BOBAR&lt;/font&gt;" style="text;html=1;strokeColor=none;fillColor=none;align=center;verticalAlign=middle;whiteSpace=wrap;rounded=0;fontSize=13;fontColor=none;strokeWidth=2;fontStyle=1" parent="1" vertex="1">
                    <mxGeometry x="541" y="400" width="40" height="20" as="geometry"/>
                </mxCell>
                <mxCell id="fkt52YcFWbxHf_qx1ULQ-90" value="" style="rounded=1;whiteSpace=wrap;html=1;strokeWidth=2;fillColor=none;fontSize=13;fontColor=none;" parent="1" vertex="1">
                    <mxGeometry x="530" y="400" width="60" height="20" as="geometry"/>
                </mxCell>
                <mxCell id="fkt52YcFWbxHf_qx1ULQ-92" value="&lt;font style=&quot;font-size: 17px&quot;&gt;80&lt;/font&gt;" style="text;html=1;strokeColor=none;fillColor=none;align=center;verticalAlign=middle;whiteSpace=wrap;rounded=0;fontSize=13;fontColor=none;fontStyle=1;strokeWidth=1;" parent="1" vertex="1">
                    <mxGeometry x="718" y="48" width="40" height="20" as="geometry"/>
                </mxCell>
                <mxCell id="fkt52YcFWbxHf_qx1ULQ-93" value="&lt;font style=&quot;font-size: 17px&quot;&gt;81&lt;/font&gt;" style="text;html=1;strokeColor=none;fillColor=none;align=center;verticalAlign=middle;whiteSpace=wrap;rounded=0;fontSize=13;fontColor=none;fontStyle=1" parent="1" vertex="1">
                    <mxGeometry x="726" y="74" width="40" height="20" as="geometry"/>
                </mxCell>
                <mxCell id="fkt52YcFWbxHf_qx1ULQ-94" value="102" style="text;html=1;strokeColor=none;fillColor=none;align=center;verticalAlign=middle;whiteSpace=wrap;rounded=0;fontSize=17;fontColor=none;fontStyle=4" parent="1" vertex="1">
                    <mxGeometry x="763.31" y="94" width="40" height="20" as="geometry"/>
                </mxCell>
                <mxCell id="fkt52YcFWbxHf_qx1ULQ-95" value="&lt;b&gt;82&lt;/b&gt;" style="text;html=1;strokeColor=none;fillColor=none;align=center;verticalAlign=middle;whiteSpace=wrap;rounded=0;fontSize=17;fontColor=none;" parent="1" vertex="1">
                    <mxGeometry x="746.6199999999999" y="132" width="40" height="20" as="geometry"/>
                </mxCell>
                <mxCell id="fkt52YcFWbxHf_qx1ULQ-96" value="101" style="text;html=1;strokeColor=none;fillColor=none;align=center;verticalAlign=middle;whiteSpace=wrap;rounded=0;fontSize=17;fontColor=none;fontStyle=1" parent="1" vertex="1">
                    <mxGeometry x="791.31" y="152" width="40" height="20" as="geometry"/>
                </mxCell>
                <mxCell id="fkt52YcFWbxHf_qx1ULQ-97" value="83" style="text;html=1;strokeColor=none;fillColor=none;align=center;verticalAlign=middle;whiteSpace=wrap;rounded=0;fontSize=17;fontColor=none;fontStyle=1" parent="1" vertex="1">
                    <mxGeometry x="777.31" y="186" width="40" height="20" as="geometry"/>
                </mxCell>
                <mxCell id="fkt52YcFWbxHf_qx1ULQ-98" value="100" style="text;html=1;strokeColor=none;fillColor=none;align=center;verticalAlign=middle;whiteSpace=wrap;rounded=0;fontSize=17;fontColor=none;fontStyle=4" parent="1" vertex="1">
                    <mxGeometry x="829" y="192" width="40" height="20" as="geometry"/>
                </mxCell>
                <mxCell id="fkt52YcFWbxHf_qx1ULQ-99" value="99" style="text;html=1;strokeColor=none;fillColor=none;align=center;verticalAlign=middle;whiteSpace=wrap;rounded=0;fontSize=17;fontColor=none;fontStyle=1" parent="1" vertex="1">
                    <mxGeometry x="842" y="219" width="40" height="20" as="geometry"/>
                </mxCell>
                <mxCell id="fkt52YcFWbxHf_qx1ULQ-100" value="88" style="text;html=1;strokeColor=none;fillColor=none;align=center;verticalAlign=middle;whiteSpace=wrap;rounded=0;fontSize=17;fontColor=none;fontStyle=1" parent="1" vertex="1">
                    <mxGeometry x="862" y="239" width="40" height="20" as="geometry"/>
                </mxCell>
                <mxCell id="fkt52YcFWbxHf_qx1ULQ-101" value="98" style="text;html=1;strokeColor=none;fillColor=none;align=center;verticalAlign=middle;whiteSpace=wrap;rounded=0;fontSize=17;fontColor=none;fontStyle=1" parent="1" vertex="1">
                    <mxGeometry x="849" y="264" width="40" height="20" as="geometry"/>
                </mxCell>
                <mxCell id="fkt52YcFWbxHf_qx1ULQ-102" value="89" style="text;html=1;strokeColor=none;fillColor=none;align=center;verticalAlign=middle;whiteSpace=wrap;rounded=0;fontSize=17;fontColor=none;fontStyle=1" parent="1" vertex="1">
                    <mxGeometry x="879" y="291" width="40" height="20" as="geometry"/>
                </mxCell>
                <mxCell id="fkt52YcFWbxHf_qx1ULQ-103" value="95" style="text;html=1;strokeColor=none;fillColor=none;align=center;verticalAlign=middle;whiteSpace=wrap;rounded=0;fontSize=17;fontColor=none;fontStyle=1" parent="1" vertex="1">
                    <mxGeometry x="904" y="323.19" width="40" height="20" as="geometry"/>
                </mxCell>
                <mxCell id="fkt52YcFWbxHf_qx1ULQ-104" value="94" style="text;html=1;strokeColor=none;fillColor=none;align=center;verticalAlign=middle;whiteSpace=wrap;rounded=0;fontSize=17;fontColor=none;fontStyle=1" parent="1" vertex="1">
                    <mxGeometry x="876" y="337.38" width="40" height="20" as="geometry"/>
                </mxCell>
                <mxCell id="fkt52YcFWbxHf_qx1ULQ-105" value="91" style="text;html=1;strokeColor=none;fillColor=none;align=center;verticalAlign=middle;whiteSpace=wrap;rounded=0;fontSize=17;fontColor=none;fontStyle=1" parent="1" vertex="1">
                    <mxGeometry x="843.31" y="344" width="40" height="20" as="geometry"/>
                </mxCell>
                <mxCell id="fkt52YcFWbxHf_qx1ULQ-106" value="97" style="text;html=1;strokeColor=none;fillColor=none;align=center;verticalAlign=middle;whiteSpace=wrap;rounded=0;fontSize=17;fontColor=none;fontStyle=1" parent="1" vertex="1">
                    <mxGeometry x="974" y="299" width="40" height="20" as="geometry"/>
                </mxCell>
                <mxCell id="fkt52YcFWbxHf_qx1ULQ-107" value="96" style="text;html=1;strokeColor=none;fillColor=none;align=center;verticalAlign=middle;whiteSpace=wrap;rounded=0;fontSize=17;fontColor=none;fontStyle=1" parent="1" vertex="1">
                    <mxGeometry x="996" y="261" width="40" height="20" as="geometry"/>
                </mxCell>
                <mxCell id="fkt52YcFWbxHf_qx1ULQ-108" value="PARAJE EL AMERICANO" style="text;html=1;strokeColor=none;fillColor=none;align=center;verticalAlign=middle;whiteSpace=wrap;rounded=0;fontSize=13;fontColor=none;fontStyle=1" parent="1" vertex="1">
                    <mxGeometry x="1008" y="370" width="40" height="20" as="geometry"/>
                </mxCell>
                <mxCell id="fkt52YcFWbxHf_qx1ULQ-109" value="" style="rounded=1;whiteSpace=wrap;html=1;strokeWidth=2;fillColor=none;fontSize=13;fontColor=none;" parent="1" vertex="1">
                    <mxGeometry x="980" y="356" width="100" height="54" as="geometry"/>
                </mxCell>
                <mxCell id="fkt52YcFWbxHf_qx1ULQ-110" value="" style="endArrow=classic;html=1;strokeWidth=2;fontSize=13;fontColor=none;exitX=0;exitY=0.5;exitDx=0;exitDy=0;" parent="1" edge="1">
                    <mxGeometry width="50" height="50" relative="1" as="geometry">
                        <mxPoint x="979" y="383" as="sourcePoint"/>
                        <mxPoint x="785" y="250" as="targetPoint"/>
                    </mxGeometry>
                </mxCell>
                <mxCell id="fkt52YcFWbxHf_qx1ULQ-111" value="" style="endArrow=none;html=1;strokeWidth=4;fontSize=13;fontColor=none;" parent="1" edge="1">
                    <mxGeometry width="50" height="50" relative="1" as="geometry">
                        <mxPoint x="861" y="-1121" as="sourcePoint"/>
                        <mxPoint x="670" y="-290" as="targetPoint"/>
                        <Array as="points">
                            <mxPoint x="920" y="-1120"/>
                            <mxPoint x="940" y="-1110"/>
                            <mxPoint x="980" y="-1050"/>
                            <mxPoint x="1010" y="-1000"/>
                            <mxPoint x="1020" y="-970"/>
                            <mxPoint x="890" y="-850"/>
                            <mxPoint x="850" y="-850"/>
                            <mxPoint x="780" y="-860"/>
                            <mxPoint x="720" y="-880"/>
                            <mxPoint x="710" y="-880"/>
                            <mxPoint x="700" y="-880"/>
                            <mxPoint x="690" y="-870"/>
                            <mxPoint x="670" y="-850"/>
                            <mxPoint x="649" y="-820"/>
                            <mxPoint x="640" y="-790"/>
                            <mxPoint x="641" y="-760"/>
                            <mxPoint x="639" y="-690"/>
                            <mxPoint x="630" y="-590"/>
                            <mxPoint x="630" y="-480"/>
                            <mxPoint x="629" y="-420"/>
                            <mxPoint x="640" y="-360"/>
                        </Array>
                    </mxGeometry>
                </mxCell>
                <mxCell id="fkt52YcFWbxHf_qx1ULQ-112" value="" style="endArrow=none;html=1;strokeWidth=4;fontSize=13;fontColor=none;" parent="1" edge="1">
                    <mxGeometry width="50" height="50" relative="1" as="geometry">
                        <mxPoint x="1011" y="-377" as="sourcePoint"/>
                        <mxPoint x="956" y="-852" as="targetPoint"/>
                        <Array as="points">
                            <mxPoint x="994" y="-400"/>
                            <mxPoint x="980" y="-440"/>
                            <mxPoint x="970" y="-490"/>
                            <mxPoint x="980" y="-540"/>
                            <mxPoint x="994" y="-590"/>
                            <mxPoint x="964" y="-680"/>
                            <mxPoint x="964" y="-740"/>
                        </Array>
                    </mxGeometry>
                </mxCell>
                <mxCell id="fkt52YcFWbxHf_qx1ULQ-113" value="" style="endArrow=none;html=1;strokeWidth=4;fontSize=13;fontColor=none;" parent="1" edge="1">
                    <mxGeometry width="50" height="50" relative="1" as="geometry">
                        <mxPoint x="886" y="-851" as="sourcePoint"/>
                        <mxPoint x="1100" y="-869" as="targetPoint"/>
                        <Array as="points">
                            <mxPoint x="970" y="-849"/>
                            <mxPoint x="1100" y="-859"/>
                        </Array>
                    </mxGeometry>
                </mxCell>
                <mxCell id="fkt52YcFWbxHf_qx1ULQ-115" value="" style="verticalLabelPosition=bottom;align=center;html=1;verticalAlign=top;pointerEvents=1;dashed=0;shape=mxgraph.pid2valves.valve;valveType=gate;defState=closed;strokeWidth=1;fillColor=none;fontSize=17;rotation=-90;" parent="1" vertex="1">
                    <mxGeometry x="643" y="-616" width="20" height="10" as="geometry"/>
                </mxCell>
                <mxCell id="fkt52YcFWbxHf_qx1ULQ-116" value="" style="verticalLabelPosition=bottom;align=center;html=1;verticalAlign=top;pointerEvents=1;dashed=0;shape=mxgraph.pid2valves.valve;valveType=gate;defState=closed;strokeWidth=1;fillColor=none;fontSize=17;rotation=339;" parent="1" vertex="1">
                    <mxGeometry x="633" y="-358" width="20" height="10" as="geometry"/>
                </mxCell>
                <mxCell id="fkt52YcFWbxHf_qx1ULQ-117" value="" style="verticalLabelPosition=bottom;align=center;html=1;verticalAlign=top;pointerEvents=1;dashed=0;shape=mxgraph.pid2valves.valve;valveType=gate;defState=closed;strokeWidth=1;fillColor=none;fontSize=17;rotation=15;" parent="1" vertex="1">
                    <mxGeometry x="635" y="-813" width="20" height="10" as="geometry"/>
                </mxCell>
                <mxCell id="fkt52YcFWbxHf_qx1ULQ-118" value="" style="verticalLabelPosition=bottom;align=center;html=1;verticalAlign=top;pointerEvents=1;dashed=0;shape=mxgraph.pid2valves.valve;valveType=gate;defState=closed;strokeWidth=1;fillColor=none;fontSize=17;rotation=317;" parent="1" vertex="1">
                    <mxGeometry x="668" y="-849" width="20" height="10" as="geometry"/>
                </mxCell>
                <mxCell id="fkt52YcFWbxHf_qx1ULQ-119" value="" style="verticalLabelPosition=bottom;align=center;html=1;verticalAlign=top;pointerEvents=1;dashed=0;shape=mxgraph.pid2valves.valve;valveType=gate;defState=closed;strokeWidth=1;fillColor=none;fontSize=17;rotation=254;" parent="1" vertex="1">
                    <mxGeometry x="979" y="-537" width="20" height="10" as="geometry"/>
                </mxCell>
                <mxCell id="fkt52YcFWbxHf_qx1ULQ-120" value="&lt;span style=&quot;color: rgba(0 , 0 , 0 , 0) ; font-family: monospace ; font-size: 0px&quot;&gt;%3CmxGraphModel%3E%3Croot%3E%3CmxCell%20id%3D%220%22%2F%3E%3CmxCell%20id%3D%221%22%20parent%3D%220%22%2F%3E%3CmxCell%20id%3D%222%22%20value%3D%22%22%20style%3D%22verticalLabelPosition%3Dbottom%3Balign%3Dcenter%3Bhtml%3D1%3BverticalAlign%3Dtop%3BpointerEvents%3D1%3Bdashed%3D0%3Bshape%3Dmxgraph.pid2valves.valve%3BvalveType%3Dgate%3BdefState%3Dclosed%3BstrokeWidth%3D1%3BfillColor%3Dnone%3BfontSize%3D17%3Brotation%3D-60%3B%22%20vertex%3D%221%22%20parent%3D%221%22%3E%3CmxGeometry%20x%3D%22834%22%20y%3D%22-500%22%20width%3D%2220%22%20height%3D%2210%22%20as%3D%22geometry%22%2F%3E%3C%2FmxCell%3E%3C%2Froot%3E%3C%2FmxGraphModel%3E&lt;/span&gt;&lt;span style=&quot;color: rgba(0 , 0 , 0 , 0) ; font-family: monospace ; font-size: 0px&quot;&gt;%3CmxGraphModel%3E%3Croot%3E%3CmxCell%20id%3D%220%22%2F%3E%3CmxCell%20id%3D%221%22%20parent%3D%220%22%2F%3E%3CmxCell%20id%3D%222%22%20value%3D%22%22%20style%3D%22verticalLabelPosition%3Dbottom%3Balign%3Dcenter%3Bhtml%3D1%3BverticalAlign%3Dtop%3BpointerEvents%3D1%3Bdashed%3D0%3Bshape%3Dmxgraph.pid2valves.valve%3BvalveType%3Dgate%3BdefState%3Dclosed%3BstrokeWidth%3D1%3BfillColor%3Dnone%3BfontSize%3D17%3Brotation%3D-60%3B%22%20vertex%3D%221%22%20parent%3D%221%22%3E%3CmxGeometry%20x%3D%22834%22%20y%3D%22-500%22%20width%3D%2220%22%20height%3D%2210%22%20as%3D%22geometry%22%2F%3E%3C%2FmxCell%3E%3C%2Froot%3E%3C%2FmxGraphModel%3E&lt;/span&gt;" style="verticalLabelPosition=bottom;align=center;outlineConnect=0;dashed=0;html=1;verticalAlign=top;shape=mxgraph.pid.flow_sensors.rotameter;strokeWidth=3;fillColor=none;fontSize=17;rotation=-90;" parent="1" vertex="1">
                    <mxGeometry x="854.9999999999999" y="-407.62" width="14" height="8.38" as="geometry"/>
                </mxCell>
                <mxCell id="fkt52YcFWbxHf_qx1ULQ-124" value="&lt;span style=&quot;color: rgba(0 , 0 , 0 , 0) ; font-family: monospace ; font-size: 0px&quot;&gt;%3CmxGraphModel%3E%3Croot%3E%3CmxCell%20id%3D%220%22%2F%3E%3CmxCell%20id%3D%221%22%20parent%3D%220%22%2F%3E%3CmxCell%20id%3D%222%22%20value%3D%22%22%20style%3D%22verticalLabelPosition%3Dbottom%3Balign%3Dcenter%3Bhtml%3D1%3BverticalAlign%3Dtop%3BpointerEvents%3D1%3Bdashed%3D0%3Bshape%3Dmxgraph.pid2valves.valve%3BvalveType%3Dgate%3BdefState%3Dclosed%3BstrokeWidth%3D1%3BfillColor%3Dnone%3BfontSize%3D17%3Brotation%3D-60%3B%22%20vertex%3D%221%22%20parent%3D%221%22%3E%3CmxGeometry%20x%3D%22834%22%20y%3D%22-500%22%20width%3D%2220%22%20height%3D%2210%22%20as%3D%22geometry%22%2F%3E%3C%2FmxCell%3E%3C%2Froot%3E%3C%2FmxGraphModel%3E&lt;/span&gt;&lt;span style=&quot;color: rgba(0 , 0 , 0 , 0) ; font-family: monospace ; font-size: 0px&quot;&gt;%3CmxGraphModel%3E%3Croot%3E%3CmxCell%20id%3D%220%22%2F%3E%3CmxCell%20id%3D%221%22%20parent%3D%220%22%2F%3E%3CmxCell%20id%3D%222%22%20value%3D%22%22%20style%3D%22verticalLabelPosition%3Dbottom%3Balign%3Dcenter%3Bhtml%3D1%3BverticalAlign%3Dtop%3BpointerEvents%3D1%3Bdashed%3D0%3Bshape%3Dmxgraph.pid2valves.valve%3BvalveType%3Dgate%3BdefState%3Dclosed%3BstrokeWidth%3D1%3BfillColor%3Dnone%3BfontSize%3D17%3Brotation%3D-60%3B%22%20vertex%3D%221%22%20parent%3D%221%22%3E%3CmxGeometry%20x%3D%22834%22%20y%3D%22-500%22%20width%3D%2220%22%20height%3D%2210%22%20as%3D%22geometry%22%2F%3E%3C%2FmxCell%3E%3C%2Froot%3E%3C%2FmxGraphModel%3E&lt;/span&gt;" style="verticalLabelPosition=bottom;align=center;outlineConnect=0;dashed=0;html=1;verticalAlign=top;shape=mxgraph.pid.flow_sensors.rotameter;strokeWidth=3;fillColor=none;fontSize=17;rotation=-90;" parent="1" vertex="1">
                    <mxGeometry x="1062" y="-950" width="14" height="8.38" as="geometry"/>
                </mxCell>
                <mxCell id="fkt52YcFWbxHf_qx1ULQ-125" value="" style="endArrow=none;html=1;strokeWidth=4;fontSize=13;fontColor=none;" parent="1" edge="1">
                    <mxGeometry width="50" height="50" relative="1" as="geometry">
                        <mxPoint x="979" y="-530" as="sourcePoint"/>
                        <mxPoint x="1104" y="-560" as="targetPoint"/>
                        <Array as="points">
                            <mxPoint x="1050" y="-550"/>
                        </Array>
                    </mxGeometry>
                </mxCell>
                <mxCell id="fkt52YcFWbxHf_qx1ULQ-127" value="150" style="text;html=1;strokeColor=none;fillColor=none;align=center;verticalAlign=middle;whiteSpace=wrap;rounded=0;fontSize=17;fontColor=none;fontStyle=1" parent="1" vertex="1">
                    <mxGeometry x="1076" y="-330" width="40" height="20" as="geometry"/>
                </mxCell>
                <mxCell id="fkt52YcFWbxHf_qx1ULQ-128" value="149" style="text;html=1;strokeColor=none;fillColor=none;align=center;verticalAlign=middle;whiteSpace=wrap;rounded=0;fontSize=17;fontColor=none;fontStyle=4" parent="1" vertex="1">
                    <mxGeometry x="1000" y="-355" width="40" height="20" as="geometry"/>
                </mxCell>
                <mxCell id="fkt52YcFWbxHf_qx1ULQ-129" value="151" style="text;html=1;strokeColor=none;fillColor=none;align=center;verticalAlign=middle;whiteSpace=wrap;rounded=0;fontSize=17;fontColor=none;fontStyle=4" parent="1" vertex="1">
                    <mxGeometry x="1138" y="-300.62" width="40" height="20" as="geometry"/>
                </mxCell>
                <mxCell id="fkt52YcFWbxHf_qx1ULQ-130" value="152" style="text;html=1;strokeColor=none;fillColor=none;align=center;verticalAlign=middle;whiteSpace=wrap;rounded=0;fontSize=17;fontColor=none;fontStyle=4" parent="1" vertex="1">
                    <mxGeometry x="1161" y="-210" width="40" height="20" as="geometry"/>
                </mxCell>
                <mxCell id="fkt52YcFWbxHf_qx1ULQ-131" value="244" style="text;html=1;strokeColor=none;fillColor=none;align=center;verticalAlign=middle;whiteSpace=wrap;rounded=0;fontSize=17;fontColor=none;fontStyle=1" parent="1" vertex="1">
                    <mxGeometry x="1187" y="-241" width="40" height="20" as="geometry"/>
                </mxCell>
                <mxCell id="fkt52YcFWbxHf_qx1ULQ-132" value="143" style="text;html=1;strokeColor=none;fillColor=none;align=center;verticalAlign=middle;whiteSpace=wrap;rounded=0;fontSize=17;fontColor=none;fontStyle=1" parent="1" vertex="1">
                    <mxGeometry x="1170" y="-273" width="40" height="20" as="geometry"/>
                </mxCell>
                <mxCell id="fkt52YcFWbxHf_qx1ULQ-133" value="GYM" style="text;html=1;strokeColor=none;fillColor=none;align=center;verticalAlign=middle;whiteSpace=wrap;rounded=0;fontSize=13;fontColor=none;fontStyle=1" parent="1" vertex="1">
                    <mxGeometry x="1241" y="-224" width="40" height="20" as="geometry"/>
                </mxCell>
                <mxCell id="fkt52YcFWbxHf_qx1ULQ-134" value="" style="rounded=1;whiteSpace=wrap;html=1;strokeWidth=2;fillColor=none;fontSize=13;fontColor=none;" parent="1" vertex="1">
                    <mxGeometry x="1241" y="-223" width="40" height="20" as="geometry"/>
                </mxCell>
                <mxCell id="fkt52YcFWbxHf_qx1ULQ-135" value="" style="endArrow=none;html=1;strokeWidth=4;fontSize=13;fontColor=none;" parent="1" edge="1">
                    <mxGeometry width="50" height="50" relative="1" as="geometry">
                        <mxPoint x="631" y="-610" as="sourcePoint"/>
                        <mxPoint x="516" y="-778" as="targetPoint"/>
                        <Array as="points">
                            <mxPoint x="580" y="-620"/>
                        </Array>
                    </mxGeometry>
                </mxCell>
                <mxCell id="fkt52YcFWbxHf_qx1ULQ-140" value="" style="endArrow=none;html=1;strokeWidth=4;fontSize=13;fontColor=none;" parent="1" edge="1">
                    <mxGeometry width="50" height="50" relative="1" as="geometry">
                        <mxPoint x="455" y="-575" as="sourcePoint"/>
                        <mxPoint x="590" y="-620" as="targetPoint"/>
                        <Array as="points">
                            <mxPoint x="520" y="-590"/>
                        </Array>
                    </mxGeometry>
                </mxCell>
                <mxCell id="fkt52YcFWbxHf_qx1ULQ-141" value="" style="endArrow=none;html=1;strokeWidth=4;fontSize=13;fontColor=none;exitX=1;exitY=0.5;exitDx=0;exitDy=0;exitPerimeter=0;" parent="1" source="sylwxvl_cKESi2oZsQH4-46" edge="1">
                    <mxGeometry width="50" height="50" relative="1" as="geometry">
                        <mxPoint x="590" y="-520" as="sourcePoint"/>
                        <mxPoint x="454" y="-577" as="targetPoint"/>
                        <Array as="points">
                            <mxPoint x="470" y="-470"/>
                        </Array>
                    </mxGeometry>
                </mxCell>
                <mxCell id="fkt52YcFWbxHf_qx1ULQ-142" value="" style="endArrow=none;html=1;strokeWidth=4;fontSize=13;fontColor=none;" parent="1" edge="1">
                    <mxGeometry width="50" height="50" relative="1" as="geometry">
                        <mxPoint x="531" y="-270" as="sourcePoint"/>
                        <mxPoint x="470" y="-476" as="targetPoint"/>
                        <Array as="points">
                            <mxPoint x="531" y="-292"/>
                            <mxPoint x="580" y="-332"/>
                            <mxPoint x="580" y="-352"/>
                            <mxPoint x="580" y="-372"/>
                            <mxPoint x="570" y="-392"/>
                            <mxPoint x="560" y="-432"/>
                            <mxPoint x="540" y="-470"/>
                        </Array>
                    </mxGeometry>
                </mxCell>
                <mxCell id="fkt52YcFWbxHf_qx1ULQ-143" value="159" style="text;html=1;strokeColor=none;fillColor=none;align=center;verticalAlign=middle;whiteSpace=wrap;rounded=0;fontSize=17;fontColor=none;fontStyle=1" parent="1" vertex="1">
                    <mxGeometry x="529" y="-282" width="40" height="20" as="geometry"/>
                </mxCell>
                <mxCell id="fkt52YcFWbxHf_qx1ULQ-144" value="155" style="text;html=1;strokeColor=none;fillColor=none;align=center;verticalAlign=middle;whiteSpace=wrap;rounded=0;fontSize=17;fontColor=none;fontStyle=1" parent="1" vertex="1">
                    <mxGeometry x="556" y="-315" width="40" height="20" as="geometry"/>
                </mxCell>
                <mxCell id="fkt52YcFWbxHf_qx1ULQ-145" value="161" style="text;html=1;strokeColor=none;fillColor=none;align=center;verticalAlign=middle;whiteSpace=wrap;rounded=0;fontSize=17;fontColor=none;fontStyle=1" parent="1" vertex="1">
                    <mxGeometry x="482" y="-309" width="40" height="20" as="geometry"/>
                </mxCell>
                <mxCell id="fkt52YcFWbxHf_qx1ULQ-146" value="158" style="text;html=1;strokeColor=none;fillColor=none;align=center;verticalAlign=middle;whiteSpace=wrap;rounded=0;fontSize=17;fontColor=none;fontStyle=1" parent="1" vertex="1">
                    <mxGeometry x="481" y="-355" width="40" height="20" as="geometry"/>
                </mxCell>
                <mxCell id="fkt52YcFWbxHf_qx1ULQ-147" value="" style="endArrow=none;html=1;strokeWidth=4;fontSize=17;fontColor=none;" parent="1" edge="1">
                    <mxGeometry width="50" height="50" relative="1" as="geometry">
                        <mxPoint x="635" y="-311" as="sourcePoint"/>
                        <mxPoint x="658" y="-319" as="targetPoint"/>
                    </mxGeometry>
                </mxCell>
                <mxCell id="fkt52YcFWbxHf_qx1ULQ-148" value="156" style="text;html=1;strokeColor=none;fillColor=none;align=center;verticalAlign=middle;whiteSpace=wrap;rounded=0;fontSize=17;fontColor=none;fontStyle=1" parent="1" vertex="1">
                    <mxGeometry x="601" y="-329" width="40" height="20" as="geometry"/>
                </mxCell>
                <mxCell id="fkt52YcFWbxHf_qx1ULQ-150" value="154" style="text;html=1;strokeColor=none;fillColor=none;align=center;verticalAlign=middle;whiteSpace=wrap;rounded=0;fontSize=17;fontColor=none;fontStyle=1" parent="1" vertex="1">
                    <mxGeometry x="575" y="-380.38" width="40" height="20" as="geometry"/>
                </mxCell>
                <mxCell id="fkt52YcFWbxHf_qx1ULQ-151" value="LOS LAGARTOS" style="text;html=1;strokeColor=none;fillColor=none;align=center;verticalAlign=middle;whiteSpace=wrap;rounded=0;fontSize=13;fontColor=none;fontStyle=1" parent="1" vertex="1">
                    <mxGeometry x="376" y="-390" width="40" height="20" as="geometry"/>
                </mxCell>
                <mxCell id="fkt52YcFWbxHf_qx1ULQ-152" value="" style="rounded=1;whiteSpace=wrap;html=1;strokeWidth=2;fillColor=none;fontSize=13;fontColor=none;" parent="1" vertex="1">
                    <mxGeometry x="358" y="-399.24" width="80" height="40" as="geometry"/>
                </mxCell>
                <mxCell id="fkt52YcFWbxHf_qx1ULQ-153" value="" style="endArrow=classic;html=1;strokeWidth=1;fontSize=13;fontColor=none;exitX=1;exitY=0.5;exitDx=0;exitDy=0;" parent="1" source="fkt52YcFWbxHf_qx1ULQ-152" edge="1">
                    <mxGeometry width="50" height="50" relative="1" as="geometry">
                        <mxPoint x="480" y="-290" as="sourcePoint"/>
                        <mxPoint x="626" y="-351" as="targetPoint"/>
                    </mxGeometry>
                </mxCell>
                <mxCell id="fkt52YcFWbxHf_qx1ULQ-154" value="160" style="text;html=1;strokeColor=none;fillColor=none;align=center;verticalAlign=middle;whiteSpace=wrap;rounded=0;fontSize=17;fontColor=none;fontStyle=1" parent="1" vertex="1">
                    <mxGeometry x="476" y="-407" width="40" height="20" as="geometry"/>
                </mxCell>
                <mxCell id="fkt52YcFWbxHf_qx1ULQ-155" value="169" style="text;html=1;strokeColor=none;fillColor=none;align=center;verticalAlign=middle;whiteSpace=wrap;rounded=0;fontSize=17;fontColor=none;fontStyle=1" parent="1" vertex="1">
                    <mxGeometry x="556" y="-440" width="40" height="20" as="geometry"/>
                </mxCell>
                <mxCell id="fkt52YcFWbxHf_qx1ULQ-157" value="163" style="text;html=1;strokeColor=none;fillColor=none;align=center;verticalAlign=middle;whiteSpace=wrap;rounded=0;fontSize=17;fontColor=none;fontStyle=1" parent="1" vertex="1">
                    <mxGeometry x="629" y="-480" width="40" height="20" as="geometry"/>
                </mxCell>
                <mxCell id="fkt52YcFWbxHf_qx1ULQ-158" value="157" style="text;html=1;strokeColor=none;fillColor=none;align=center;verticalAlign=middle;whiteSpace=wrap;rounded=0;fontSize=17;fontColor=none;fontStyle=4" parent="1" vertex="1">
                    <mxGeometry x="642" y="-440" width="40" height="20" as="geometry"/>
                </mxCell>
                <mxCell id="fkt52YcFWbxHf_qx1ULQ-159" value="" style="endArrow=none;html=1;strokeWidth=4;fontSize=17;fontColor=none;" parent="1" edge="1">
                    <mxGeometry width="50" height="50" relative="1" as="geometry">
                        <mxPoint x="632" y="-397" as="sourcePoint"/>
                        <mxPoint x="710" y="-430" as="targetPoint"/>
                        <Array as="points">
                            <mxPoint x="670" y="-420"/>
                        </Array>
                    </mxGeometry>
                </mxCell>
                <mxCell id="fkt52YcFWbxHf_qx1ULQ-160" value="168" style="text;html=1;strokeColor=none;fillColor=none;align=center;verticalAlign=middle;whiteSpace=wrap;rounded=0;fontSize=17;fontColor=none;fontStyle=4" parent="1" vertex="1">
                    <mxGeometry x="706" y="-440" width="40" height="20" as="geometry"/>
                </mxCell>
                <mxCell id="fkt52YcFWbxHf_qx1ULQ-161" value="175-195" style="text;html=1;strokeColor=none;fillColor=none;align=center;verticalAlign=middle;whiteSpace=wrap;rounded=0;fontSize=17;fontColor=none;fontStyle=4" parent="1" vertex="1">
                    <mxGeometry x="631" y="-531" width="70" height="20" as="geometry"/>
                </mxCell>
                <mxCell id="fkt52YcFWbxHf_qx1ULQ-162" value="165" style="text;html=1;strokeColor=none;fillColor=none;align=center;verticalAlign=middle;whiteSpace=wrap;rounded=0;fontSize=17;fontColor=none;fontStyle=4" parent="1" vertex="1">
                    <mxGeometry x="424" y="-598" width="40" height="20" as="geometry"/>
                </mxCell>
                <mxCell id="fkt52YcFWbxHf_qx1ULQ-163" value="GASOLINERA EL MAMI" style="text;html=1;strokeColor=none;fillColor=none;align=center;verticalAlign=middle;whiteSpace=wrap;rounded=0;fontSize=13;fontColor=none;fontStyle=1" parent="1" vertex="1">
                    <mxGeometry x="437" y="-665" width="40" height="20" as="geometry"/>
                </mxCell>
                <mxCell id="fkt52YcFWbxHf_qx1ULQ-165" value="" style="rounded=1;whiteSpace=wrap;html=1;strokeWidth=2;fillColor=none;fontSize=13;fontColor=none;" parent="1" vertex="1">
                    <mxGeometry x="412" y="-675" width="90" height="40" as="geometry"/>
                </mxCell>
                <mxCell id="fkt52YcFWbxHf_qx1ULQ-166" value="" style="endArrow=classic;html=1;strokeWidth=1;fontSize=13;fontColor=none;exitX=0.935;exitY=1.055;exitDx=0;exitDy=0;exitPerimeter=0;entryX=0.935;entryY=1.055;entryDx=0;entryDy=0;entryPerimeter=0;" parent="1" source="fkt52YcFWbxHf_qx1ULQ-165" edge="1">
                    <mxGeometry width="50" height="50" relative="1" as="geometry">
                        <mxPoint x="540" y="-600" as="sourcePoint"/>
                        <mxPoint x="601" y="-574" as="targetPoint"/>
                        <Array as="points"/>
                    </mxGeometry>
                </mxCell>
                <mxCell id="fkt52YcFWbxHf_qx1ULQ-167" value="167" style="text;html=1;strokeColor=none;fillColor=none;align=center;verticalAlign=middle;whiteSpace=wrap;rounded=0;fontSize=17;fontColor=none;fontStyle=1" parent="1" vertex="1">
                    <mxGeometry x="583" y="-611" width="40" height="20" as="geometry"/>
                </mxCell>
                <mxCell id="fkt52YcFWbxHf_qx1ULQ-168" value="164" style="text;html=1;strokeColor=none;fillColor=none;align=center;verticalAlign=middle;whiteSpace=wrap;rounded=0;fontSize=17;fontColor=none;fontStyle=4" parent="1" vertex="1">
                    <mxGeometry x="575" y="-644" width="40" height="20" as="geometry"/>
                </mxCell>
                <mxCell id="fkt52YcFWbxHf_qx1ULQ-169" value="187" style="text;html=1;strokeColor=none;fillColor=none;align=center;verticalAlign=middle;whiteSpace=wrap;rounded=0;fontSize=17;fontColor=none;fontStyle=1" parent="1" vertex="1">
                    <mxGeometry x="557" y="-684" width="40" height="20" as="geometry"/>
                </mxCell>
                <mxCell id="fkt52YcFWbxHf_qx1ULQ-170" value="185" style="text;html=1;strokeColor=none;fillColor=none;align=center;verticalAlign=middle;whiteSpace=wrap;rounded=0;fontSize=17;fontColor=none;fontStyle=1" parent="1" vertex="1">
                    <mxGeometry x="542" y="-716" width="40" height="20" as="geometry"/>
                </mxCell>
                <mxCell id="fkt52YcFWbxHf_qx1ULQ-171" value="HOSPITAL VIRGEN DEL MAR" style="text;html=1;strokeColor=none;fillColor=none;align=center;verticalAlign=middle;whiteSpace=wrap;rounded=0;fontSize=13;fontColor=none;fontStyle=1" parent="1" vertex="1">
                    <mxGeometry x="700" y="-682" width="40" height="20" as="geometry"/>
                </mxCell>
                <mxCell id="fkt52YcFWbxHf_qx1ULQ-172" value="" style="rounded=1;whiteSpace=wrap;html=1;strokeWidth=2;fillColor=none;fontSize=13;fontColor=none;" parent="1" vertex="1">
                    <mxGeometry x="684" y="-700" width="70" height="56" as="geometry"/>
                </mxCell>
                <mxCell id="fkt52YcFWbxHf_qx1ULQ-173" value="184" style="text;html=1;strokeColor=none;fillColor=none;align=center;verticalAlign=middle;whiteSpace=wrap;rounded=0;fontSize=17;fontColor=none;fontStyle=4" parent="1" vertex="1">
                    <mxGeometry x="530" y="-755" width="40" height="20" as="geometry"/>
                </mxCell>
                <mxCell id="fkt52YcFWbxHf_qx1ULQ-174" value="188" style="text;html=1;strokeColor=none;fillColor=none;align=center;verticalAlign=middle;whiteSpace=wrap;rounded=0;fontSize=17;fontColor=none;fontStyle=1" parent="1" vertex="1">
                    <mxGeometry x="516" y="-794" width="40" height="20" as="geometry"/>
                </mxCell>
                <mxCell id="fkt52YcFWbxHf_qx1ULQ-175" value="" style="endArrow=none;html=1;strokeWidth=4;fontSize=17;fontColor=none;" parent="1" edge="1">
                    <mxGeometry width="50" height="50" relative="1" as="geometry">
                        <mxPoint x="860" y="-408.85714285714283" as="sourcePoint"/>
                        <mxPoint x="630" y="-610" as="targetPoint"/>
                        <Array as="points">
                            <mxPoint x="730" y="-550"/>
                            <mxPoint x="690" y="-610"/>
                        </Array>
                    </mxGeometry>
                </mxCell>
                <mxCell id="fkt52YcFWbxHf_qx1ULQ-178" value="" style="endArrow=none;html=1;strokeWidth=4;fontSize=17;fontColor=none;" parent="1" edge="1">
                    <mxGeometry width="50" height="50" relative="1" as="geometry">
                        <mxPoint x="753" y="-395" as="sourcePoint"/>
                        <mxPoint x="840" y="-430" as="targetPoint"/>
                        <Array as="points">
                            <mxPoint x="800" y="-420"/>
                        </Array>
                    </mxGeometry>
                </mxCell>
                <mxCell id="fkt52YcFWbxHf_qx1ULQ-179" value="PUBLIFIESTAS CONDE" style="text;html=1;strokeColor=none;fillColor=none;align=center;verticalAlign=middle;whiteSpace=wrap;rounded=0;fontSize=13;fontColor=none;fontStyle=1" parent="1" vertex="1">
                    <mxGeometry x="884" y="-522" width="40" height="20" as="geometry"/>
                </mxCell>
                <mxCell id="fkt52YcFWbxHf_qx1ULQ-180" value="" style="rounded=1;whiteSpace=wrap;html=1;strokeWidth=2;fillColor=none;fontSize=13;fontColor=none;" parent="1" vertex="1">
                    <mxGeometry x="850" y="-530" width="106.31" height="40" as="geometry"/>
                </mxCell>
                <mxCell id="fkt52YcFWbxHf_qx1ULQ-181" value="" style="endArrow=classic;html=1;strokeWidth=1;fontSize=13;fontColor=none;exitX=0.5;exitY=1;exitDx=0;exitDy=0;" parent="1" source="fkt52YcFWbxHf_qx1ULQ-180" edge="1">
                    <mxGeometry width="50" height="50" relative="1" as="geometry">
                        <mxPoint x="770" y="-410" as="sourcePoint"/>
                        <mxPoint x="910" y="-380" as="targetPoint"/>
                    </mxGeometry>
                </mxCell>
                <mxCell id="fkt52YcFWbxHf_qx1ULQ-182" value="176" style="text;html=1;strokeColor=none;fillColor=none;align=center;verticalAlign=middle;whiteSpace=wrap;rounded=0;fontSize=17;fontColor=none;strokeWidth=4;fontStyle=1" parent="1" vertex="1">
                    <mxGeometry x="728" y="-395.24" width="40" height="20" as="geometry"/>
                </mxCell>
                <mxCell id="fkt52YcFWbxHf_qx1ULQ-183" value="177" style="text;html=1;strokeColor=none;fillColor=none;align=center;verticalAlign=middle;whiteSpace=wrap;rounded=0;fontSize=17;fontColor=none;fontStyle=1" parent="1" vertex="1">
                    <mxGeometry x="770" y="-407" width="40" height="20" as="geometry"/>
                </mxCell>
                <mxCell id="fkt52YcFWbxHf_qx1ULQ-184" value="171" style="text;html=1;strokeColor=none;fillColor=none;align=center;verticalAlign=middle;whiteSpace=wrap;rounded=0;fontSize=17;fontColor=none;fontStyle=1" parent="1" vertex="1">
                    <mxGeometry x="802" y="-420.81" width="40" height="20" as="geometry"/>
                </mxCell>
                <mxCell id="fkt52YcFWbxHf_qx1ULQ-185" value="172" style="text;html=1;strokeColor=none;fillColor=none;align=center;verticalAlign=middle;whiteSpace=wrap;rounded=0;fontSize=17;fontColor=none;fontStyle=1" parent="1" vertex="1">
                    <mxGeometry x="862" y="-407.62" width="40" height="20" as="geometry"/>
                </mxCell>
                <mxCell id="fkt52YcFWbxHf_qx1ULQ-186" value="179" style="text;html=1;strokeColor=none;fillColor=none;align=center;verticalAlign=middle;whiteSpace=wrap;rounded=0;fontSize=17;fontColor=none;fontStyle=1" parent="1" vertex="1">
                    <mxGeometry x="824" y="-460" width="40" height="20" as="geometry"/>
                </mxCell>
                <mxCell id="fkt52YcFWbxHf_qx1ULQ-187" value="220" style="text;html=1;strokeColor=none;fillColor=none;align=center;verticalAlign=middle;whiteSpace=wrap;rounded=0;fontSize=17;fontColor=none;fontStyle=1" parent="1" vertex="1">
                    <mxGeometry x="746.62" y="-501" width="40" height="20" as="geometry"/>
                </mxCell>
                <mxCell id="fkt52YcFWbxHf_qx1ULQ-188" value="186" style="text;html=1;strokeColor=none;fillColor=none;align=center;verticalAlign=middle;whiteSpace=wrap;rounded=0;fontSize=17;fontColor=none;fontStyle=1" parent="1" vertex="1">
                    <mxGeometry x="726" y="-519" width="40" height="20" as="geometry"/>
                </mxCell>
                <mxCell id="fkt52YcFWbxHf_qx1ULQ-189" value="182" style="text;html=1;strokeColor=none;fillColor=none;align=center;verticalAlign=middle;whiteSpace=wrap;rounded=0;fontSize=17;fontColor=none;fontStyle=4" parent="1" vertex="1">
                    <mxGeometry x="791.31" y="-499" width="40" height="20" as="geometry"/>
                </mxCell>
                <mxCell id="fkt52YcFWbxHf_qx1ULQ-190" value="178" style="text;html=1;strokeColor=none;fillColor=none;align=center;verticalAlign=middle;whiteSpace=wrap;rounded=0;fontSize=17;fontColor=none;fontStyle=4" parent="1" vertex="1">
                    <mxGeometry x="809" y="-481" width="40" height="20" as="geometry"/>
                </mxCell>
                <mxCell id="fkt52YcFWbxHf_qx1ULQ-191" value="181" style="text;html=1;strokeColor=none;fillColor=none;align=center;verticalAlign=middle;whiteSpace=wrap;rounded=0;fontSize=17;fontColor=none;fontStyle=1" parent="1" vertex="1">
                    <mxGeometry x="688" y="-566" width="40" height="20" as="geometry"/>
                </mxCell>
                <mxCell id="fkt52YcFWbxHf_qx1ULQ-192" value="" style="endArrow=none;html=1;strokeWidth=4;fontSize=17;fontColor=none;" parent="1" edge="1">
                    <mxGeometry width="50" height="50" relative="1" as="geometry">
                        <mxPoint x="740" y="-540" as="sourcePoint"/>
                        <mxPoint x="830" y="-560" as="targetPoint"/>
                    </mxGeometry>
                </mxCell>
                <mxCell id="fkt52YcFWbxHf_qx1ULQ-193" value="170" style="text;html=1;strokeColor=none;fillColor=none;align=center;verticalAlign=middle;whiteSpace=wrap;rounded=0;fontSize=17;fontColor=none;fontStyle=4" parent="1" vertex="1">
                    <mxGeometry x="829" y="-570" width="40" height="20" as="geometry"/>
                </mxCell>
                <mxCell id="fkt52YcFWbxHf_qx1ULQ-194" value="233" style="text;html=1;strokeColor=none;fillColor=none;align=center;verticalAlign=middle;whiteSpace=wrap;rounded=0;fontSize=17;fontColor=none;fontStyle=1" parent="1" vertex="1">
                    <mxGeometry x="954" y="-597" width="40" height="20" as="geometry"/>
                </mxCell>
                <mxCell id="fkt52YcFWbxHf_qx1ULQ-198" value="180" style="text;html=1;strokeColor=none;fillColor=none;align=center;verticalAlign=middle;whiteSpace=wrap;rounded=0;fontSize=17;fontColor=none;fontStyle=4" parent="1" vertex="1">
                    <mxGeometry x="698" y="-618" width="40" height="20" as="geometry"/>
                </mxCell>
                <mxCell id="fkt52YcFWbxHf_qx1ULQ-199" value="189" style="text;html=1;strokeColor=none;fillColor=none;align=center;verticalAlign=middle;whiteSpace=wrap;rounded=0;fontSize=17;fontColor=none;fontStyle=4" parent="1" vertex="1">
                    <mxGeometry x="644" y="-794" width="40" height="20" as="geometry"/>
                </mxCell>
                <mxCell id="fkt52YcFWbxHf_qx1ULQ-201" value="" style="verticalLabelPosition=bottom;align=center;html=1;verticalAlign=top;pointerEvents=1;dashed=0;shape=mxgraph.pid2valves.valve;valveType=gate;defState=closed;strokeWidth=1;fillColor=none;fontSize=17;rotation=334;" parent="1" vertex="1">
                    <mxGeometry x="833" y="-865" width="20" height="10" as="geometry"/>
                </mxCell>
                <mxCell id="fkt52YcFWbxHf_qx1ULQ-203" value="" style="endArrow=none;html=1;strokeWidth=4;fontSize=17;fontColor=none;" parent="1" edge="1">
                    <mxGeometry width="50" height="50" relative="1" as="geometry">
                        <mxPoint x="729" y="-780" as="sourcePoint"/>
                        <mxPoint x="672" y="-850" as="targetPoint"/>
                    </mxGeometry>
                </mxCell>
                <mxCell id="fkt52YcFWbxHf_qx1ULQ-205" value="193" style="text;html=1;strokeColor=none;fillColor=none;align=center;verticalAlign=middle;whiteSpace=wrap;rounded=0;fontSize=17;fontColor=none;fontStyle=1" parent="1" vertex="1">
                    <mxGeometry x="661" y="-827" width="40" height="20" as="geometry"/>
                </mxCell>
                <mxCell id="fkt52YcFWbxHf_qx1ULQ-209" value="191-192" style="text;html=1;strokeColor=none;fillColor=none;align=center;verticalAlign=middle;whiteSpace=wrap;rounded=0;fontSize=17;fontColor=none;fontStyle=1" parent="1" vertex="1">
                    <mxGeometry x="730" y="-790" width="70" height="20" as="geometry"/>
                </mxCell>
                <mxCell id="fkt52YcFWbxHf_qx1ULQ-210" value="241" style="text;html=1;strokeColor=none;fillColor=none;align=center;verticalAlign=middle;whiteSpace=wrap;rounded=0;fontSize=17;fontColor=none;fontStyle=1" parent="1" vertex="1">
                    <mxGeometry x="662" y="-900" width="40" height="20" as="geometry"/>
                </mxCell>
                <mxCell id="fkt52YcFWbxHf_qx1ULQ-211" value="202" style="text;html=1;strokeColor=none;fillColor=none;align=center;verticalAlign=middle;whiteSpace=wrap;rounded=0;fontSize=17;fontColor=none;fontStyle=4" parent="1" vertex="1">
                    <mxGeometry x="754" y="-888" width="40" height="20" as="geometry"/>
                </mxCell>
                <mxCell id="fkt52YcFWbxHf_qx1ULQ-212" value="ORDOÑO" style="text;html=1;strokeColor=none;fillColor=none;align=center;verticalAlign=middle;whiteSpace=wrap;rounded=0;fontSize=13;fontColor=none;fontStyle=1" parent="1" vertex="1">
                    <mxGeometry x="574" y="-828" width="40" height="20" as="geometry"/>
                </mxCell>
                <mxCell id="fkt52YcFWbxHf_qx1ULQ-213" value="" style="rounded=1;whiteSpace=wrap;html=1;strokeWidth=2;fillColor=none;fontSize=13;fontColor=none;" parent="1" vertex="1">
                    <mxGeometry x="557" y="-828" width="70" height="20" as="geometry"/>
                </mxCell>
                <mxCell id="fkt52YcFWbxHf_qx1ULQ-214" value="203" style="text;html=1;strokeColor=none;fillColor=none;align=center;verticalAlign=middle;whiteSpace=wrap;rounded=0;fontSize=17;fontColor=none;strokeWidth=4;fontStyle=1" parent="1" vertex="1">
                    <mxGeometry x="904" y="-847" width="40" height="20" as="geometry"/>
                </mxCell>
                <mxCell id="fkt52YcFWbxHf_qx1ULQ-215" value="204" style="text;html=1;strokeColor=none;fillColor=none;align=center;verticalAlign=middle;whiteSpace=wrap;rounded=0;fontSize=17;fontColor=none;fontStyle=4" parent="1" vertex="1">
                    <mxGeometry x="846" y="-850" width="40" height="20" as="geometry"/>
                </mxCell>
                <mxCell id="fkt52YcFWbxHf_qx1ULQ-216" value="" style="endArrow=none;html=1;strokeWidth=4;fontSize=17;fontColor=none;" parent="1" edge="1">
                    <mxGeometry width="50" height="50" relative="1" as="geometry">
                        <mxPoint x="848" y="-850" as="sourcePoint"/>
                        <mxPoint x="735" y="-1015" as="targetPoint"/>
                        <Array as="points">
                            <mxPoint x="820" y="-900"/>
                            <mxPoint x="770" y="-950"/>
                        </Array>
                    </mxGeometry>
                </mxCell>
                <mxCell id="fkt52YcFWbxHf_qx1ULQ-217" value="237" style="text;html=1;strokeColor=none;fillColor=none;align=center;verticalAlign=middle;whiteSpace=wrap;rounded=0;fontSize=17;fontColor=none;fontStyle=1" parent="1" vertex="1">
                    <mxGeometry x="831.31" y="-890" width="40" height="20" as="geometry"/>
                </mxCell>
                <mxCell id="fkt52YcFWbxHf_qx1ULQ-218" value="197" style="text;html=1;strokeColor=none;fillColor=none;align=center;verticalAlign=middle;whiteSpace=wrap;rounded=0;fontSize=17;fontColor=none;fontStyle=1" parent="1" vertex="1">
                    <mxGeometry x="813" y="-916" width="40" height="20" as="geometry"/>
                </mxCell>
                <mxCell id="fkt52YcFWbxHf_qx1ULQ-219" value="199" style="text;html=1;strokeColor=none;fillColor=none;align=center;verticalAlign=middle;whiteSpace=wrap;rounded=0;fontSize=17;fontColor=none;fontStyle=1" parent="1" vertex="1">
                    <mxGeometry x="785" y="-946" width="40" height="20" as="geometry"/>
                </mxCell>
                <mxCell id="fkt52YcFWbxHf_qx1ULQ-220" value="200" style="text;html=1;strokeColor=none;fillColor=none;align=center;verticalAlign=middle;whiteSpace=wrap;rounded=0;fontSize=17;fontColor=none;fontStyle=4" parent="1" vertex="1">
                    <mxGeometry x="753" y="-988" width="40" height="20" as="geometry"/>
                </mxCell>
                <mxCell id="fkt52YcFWbxHf_qx1ULQ-221" value="201" style="text;html=1;strokeColor=none;fillColor=none;align=center;verticalAlign=middle;whiteSpace=wrap;rounded=0;fontSize=17;fontColor=none;fontStyle=1" parent="1" vertex="1">
                    <mxGeometry x="733.62" y="-1026" width="40" height="20" as="geometry"/>
                </mxCell>
                <mxCell id="fkt52YcFWbxHf_qx1ULQ-222" value="GALIANO" style="text;html=1;strokeColor=none;fillColor=none;align=center;verticalAlign=middle;whiteSpace=wrap;rounded=0;fontSize=13;fontColor=none;fontStyle=1" parent="1" vertex="1">
                    <mxGeometry x="868" y="-919" width="40" height="20" as="geometry"/>
                </mxCell>
                <mxCell id="fkt52YcFWbxHf_qx1ULQ-223" value="" style="rounded=1;whiteSpace=wrap;html=1;strokeWidth=2;fillColor=none;fontSize=13;fontColor=none;" parent="1" vertex="1">
                    <mxGeometry x="853" y="-919" width="70" height="20" as="geometry"/>
                </mxCell>
                <mxCell id="fkt52YcFWbxHf_qx1ULQ-224" value="239" style="text;html=1;strokeColor=none;fillColor=none;align=center;verticalAlign=middle;whiteSpace=wrap;rounded=0;fontSize=17;fontColor=none;fontStyle=1;strokeWidth=4;" parent="1" vertex="1">
                    <mxGeometry x="881" y="-891" width="40" height="20" as="geometry"/>
                </mxCell>
                <mxCell id="fkt52YcFWbxHf_qx1ULQ-226" value="205" style="text;html=1;strokeColor=none;fillColor=none;align=center;verticalAlign=middle;whiteSpace=wrap;rounded=0;fontSize=17;fontColor=none;fontStyle=1" parent="1" vertex="1">
                    <mxGeometry x="954" y="-850" width="40" height="20" as="geometry"/>
                </mxCell>
                <mxCell id="fkt52YcFWbxHf_qx1ULQ-227" value="236" style="text;html=1;strokeColor=none;fillColor=none;align=center;verticalAlign=middle;whiteSpace=wrap;rounded=0;fontSize=17;fontColor=none;fontStyle=1" parent="1" vertex="1">
                    <mxGeometry x="1009" y="-852" width="40" height="20" as="geometry"/>
                </mxCell>
                <mxCell id="fkt52YcFWbxHf_qx1ULQ-228" value="224" style="text;html=1;strokeColor=none;fillColor=none;align=center;verticalAlign=middle;whiteSpace=wrap;rounded=0;fontSize=17;fontColor=none;fontStyle=1" parent="1" vertex="1">
                    <mxGeometry x="1058" y="-855" width="40" height="20" as="geometry"/>
                </mxCell>
                <mxCell id="fkt52YcFWbxHf_qx1ULQ-229" value="222" style="text;html=1;strokeColor=none;fillColor=none;align=center;verticalAlign=middle;whiteSpace=wrap;rounded=0;fontSize=17;fontColor=none;fontStyle=1" parent="1" vertex="1">
                    <mxGeometry x="1081" y="-890" width="40" height="20" as="geometry"/>
                </mxCell>
                <mxCell id="fkt52YcFWbxHf_qx1ULQ-230" value="" style="verticalLabelPosition=bottom;align=center;html=1;verticalAlign=top;pointerEvents=1;dashed=0;shape=mxgraph.pid2valves.valve;valveType=gate;defState=closed;strokeWidth=1;fillColor=none;fontSize=17;rotation=-105;" parent="1" vertex="1">
                    <mxGeometry x="1014" y="-997" width="20" height="10" as="geometry"/>
                </mxCell>
                <mxCell id="fkt52YcFWbxHf_qx1ULQ-232" value="" style="endArrow=none;html=1;strokeWidth=4;fontSize=17;fontColor=none;" parent="1" edge="1">
                    <mxGeometry width="50" height="50" relative="1" as="geometry">
                        <mxPoint x="961" y="-783" as="sourcePoint"/>
                        <mxPoint x="1000" y="-784" as="targetPoint"/>
                    </mxGeometry>
                </mxCell>
                <mxCell id="fkt52YcFWbxHf_qx1ULQ-231" value="" style="verticalLabelPosition=bottom;align=center;html=1;verticalAlign=top;pointerEvents=1;dashed=0;shape=mxgraph.pid2valves.valve;valveType=gate;defState=closed;strokeWidth=1;fillColor=none;fontSize=17;rotation=-90;" parent="1" vertex="1">
                    <mxGeometry x="959" y="-788" width="20" height="10" as="geometry"/>
                </mxCell>
                <mxCell id="fkt52YcFWbxHf_qx1ULQ-234" value="223" style="text;html=1;strokeColor=none;fillColor=none;align=center;verticalAlign=middle;whiteSpace=wrap;rounded=0;fontSize=17;fontColor=none;fontStyle=1" parent="1" vertex="1">
                    <mxGeometry x="994" y="-788" width="40" height="20" as="geometry"/>
                </mxCell>
                <mxCell id="fkt52YcFWbxHf_qx1ULQ-235" value="" style="endArrow=none;html=1;strokeWidth=4;fontSize=17;fontColor=none;" parent="1" edge="1">
                    <mxGeometry width="50" height="50" relative="1" as="geometry">
                        <mxPoint x="965" y="-728" as="sourcePoint"/>
                        <mxPoint x="1086" y="-740" as="targetPoint"/>
                    </mxGeometry>
                </mxCell>
                <mxCell id="fkt52YcFWbxHf_qx1ULQ-236" value="" style="endArrow=none;html=1;strokeWidth=4;fontSize=17;fontColor=none;" parent="1" edge="1">
                    <mxGeometry width="50" height="50" relative="1" as="geometry">
                        <mxPoint x="1048" y="-736" as="sourcePoint"/>
                        <mxPoint x="1050" y="-690" as="targetPoint"/>
                    </mxGeometry>
                </mxCell>
                <mxCell id="fkt52YcFWbxHf_qx1ULQ-237" value="228" style="text;html=1;strokeColor=none;fillColor=none;align=center;verticalAlign=middle;whiteSpace=wrap;rounded=0;fontSize=17;fontColor=none;fontStyle=1" parent="1" vertex="1">
                    <mxGeometry x="964" y="-750" width="40" height="20" as="geometry"/>
                </mxCell>
                <mxCell id="fkt52YcFWbxHf_qx1ULQ-238" value="225" style="text;html=1;strokeColor=none;fillColor=none;align=center;verticalAlign=middle;whiteSpace=wrap;rounded=0;fontSize=17;fontColor=none;fontStyle=1" parent="1" vertex="1">
                    <mxGeometry x="1090" y="-750" width="40" height="20" as="geometry"/>
                </mxCell>
                <mxCell id="fkt52YcFWbxHf_qx1ULQ-239" value="230" style="text;html=1;strokeColor=none;fillColor=none;align=center;verticalAlign=middle;whiteSpace=wrap;rounded=0;fontSize=17;fontColor=none;fontStyle=1" parent="1" vertex="1">
                    <mxGeometry x="996" y="-730" width="40" height="20" as="geometry"/>
                </mxCell>
                <mxCell id="fkt52YcFWbxHf_qx1ULQ-240" value="227" style="text;html=1;strokeColor=none;fillColor=none;align=center;verticalAlign=middle;whiteSpace=wrap;rounded=0;fontSize=17;fontColor=none;fontStyle=1" parent="1" vertex="1">
                    <mxGeometry x="1048" y="-696" width="40" height="20" as="geometry"/>
                </mxCell>
                <mxCell id="fkt52YcFWbxHf_qx1ULQ-241" value="" style="endArrow=none;html=1;strokeWidth=4;fontSize=17;fontColor=none;" parent="1" edge="1">
                    <mxGeometry width="50" height="50" relative="1" as="geometry">
                        <mxPoint x="873" y="-664" as="sourcePoint"/>
                        <mxPoint x="965" y="-680" as="targetPoint"/>
                        <Array as="points">
                            <mxPoint x="900" y="-670"/>
                        </Array>
                    </mxGeometry>
                </mxCell>
                <mxCell id="fkt52YcFWbxHf_qx1ULQ-242" value="226" style="text;html=1;strokeColor=none;fillColor=none;align=center;verticalAlign=middle;whiteSpace=wrap;rounded=0;fontSize=17;fontColor=none;fontStyle=1" parent="1" vertex="1">
                    <mxGeometry x="851" y="-664" width="40" height="20" as="geometry"/>
                </mxCell>
                <mxCell id="fkt52YcFWbxHf_qx1ULQ-243" value="250" style="text;html=1;strokeColor=none;fillColor=none;align=center;verticalAlign=middle;whiteSpace=wrap;rounded=0;fontSize=17;fontColor=none;fontStyle=1" parent="1" vertex="1">
                    <mxGeometry x="876" y="-690" width="40" height="20" as="geometry"/>
                </mxCell>
                <mxCell id="fkt52YcFWbxHf_qx1ULQ-244" value="221" style="text;html=1;strokeColor=none;fillColor=none;align=center;verticalAlign=middle;whiteSpace=wrap;rounded=0;fontSize=17;fontColor=none;fontStyle=1" parent="1" vertex="1">
                    <mxGeometry x="914" y="-670" width="40" height="20" as="geometry"/>
                </mxCell>
                <mxCell id="fkt52YcFWbxHf_qx1ULQ-245" value="261" style="text;html=1;strokeColor=none;fillColor=none;align=center;verticalAlign=middle;whiteSpace=wrap;rounded=0;fontSize=17;fontColor=none;fontStyle=1" parent="1" vertex="1">
                    <mxGeometry x="1020" y="-570" width="40" height="20" as="geometry"/>
                </mxCell>
                <mxCell id="fkt52YcFWbxHf_qx1ULQ-246" value="260" style="text;html=1;strokeColor=none;fillColor=none;align=center;verticalAlign=middle;whiteSpace=wrap;rounded=0;fontSize=17;fontColor=none;fontStyle=1" parent="1" vertex="1">
                    <mxGeometry x="1081" y="-584" width="40" height="20" as="geometry"/>
                </mxCell>
                <mxCell id="fkt52YcFWbxHf_qx1ULQ-247" value="VIAGRO" style="text;html=1;strokeColor=none;fillColor=none;align=center;verticalAlign=middle;whiteSpace=wrap;rounded=0;fontSize=13;fontColor=none;fontStyle=1" parent="1" vertex="1">
                    <mxGeometry x="1000" y="-675" width="40" height="20" as="geometry"/>
                </mxCell>
                <mxCell id="fkt52YcFWbxHf_qx1ULQ-248" value="" style="rounded=1;whiteSpace=wrap;html=1;strokeWidth=2;fillColor=none;fontSize=13;fontColor=none;" parent="1" vertex="1">
                    <mxGeometry x="986" y="-675" width="65" height="20" as="geometry"/>
                </mxCell>
                <mxCell id="fkt52YcFWbxHf_qx1ULQ-249" value="LA GOLETA" style="text;html=1;strokeColor=none;fillColor=none;align=center;verticalAlign=middle;whiteSpace=wrap;rounded=0;fontSize=13;fontColor=none;fontStyle=1" parent="1" vertex="1">
                    <mxGeometry x="1130" y="-590" width="80" height="20" as="geometry"/>
                </mxCell>
                <mxCell id="fkt52YcFWbxHf_qx1ULQ-250" value="" style="rounded=1;whiteSpace=wrap;html=1;strokeWidth=2;fillColor=none;fontSize=13;fontColor=none;" parent="1" vertex="1">
                    <mxGeometry x="1130" y="-590" width="80" height="20" as="geometry"/>
                </mxCell>
                <mxCell id="fkt52YcFWbxHf_qx1ULQ-251" value="" style="endArrow=none;html=1;strokeWidth=4;fontSize=13;fontColor=none;" parent="1" edge="1">
                    <mxGeometry width="50" height="50" relative="1" as="geometry">
                        <mxPoint x="980" y="-440" as="sourcePoint"/>
                        <mxPoint x="1203" y="-533" as="targetPoint"/>
                        <Array as="points">
                            <mxPoint x="1100" y="-480"/>
                            <mxPoint x="1110" y="-500"/>
                            <mxPoint x="1160" y="-520"/>
                        </Array>
                    </mxGeometry>
                </mxCell>
                <mxCell id="fkt52YcFWbxHf_qx1ULQ-252" value="209" style="text;html=1;strokeColor=none;fillColor=none;align=center;verticalAlign=middle;whiteSpace=wrap;rounded=0;fontSize=17;fontColor=none;fontStyle=1" parent="1" vertex="1">
                    <mxGeometry x="1018" y="-455" width="40" height="20" as="geometry"/>
                </mxCell>
                <mxCell id="fkt52YcFWbxHf_qx1ULQ-253" value="207" style="text;html=1;strokeColor=none;fillColor=none;align=center;verticalAlign=middle;whiteSpace=wrap;rounded=0;fontSize=17;fontColor=none;fontStyle=1" parent="1" vertex="1">
                    <mxGeometry x="1036" y="-493" width="40" height="20" as="geometry"/>
                </mxCell>
                <mxCell id="fkt52YcFWbxHf_qx1ULQ-254" value="&lt;b&gt;254&lt;/b&gt;" style="text;html=1;strokeColor=none;fillColor=none;align=center;verticalAlign=middle;whiteSpace=wrap;rounded=0;fontSize=17;fontColor=none;" parent="1" vertex="1">
                    <mxGeometry x="1076" y="-520" width="40" height="20" as="geometry"/>
                </mxCell>
                <mxCell id="fkt52YcFWbxHf_qx1ULQ-255" value="218" style="text;html=1;strokeColor=none;fillColor=none;align=center;verticalAlign=middle;whiteSpace=wrap;rounded=0;fontSize=17;fontColor=none;fontStyle=1" parent="1" vertex="1">
                    <mxGeometry x="1130" y="-539" width="40" height="20" as="geometry"/>
                </mxCell>
                <mxCell id="fkt52YcFWbxHf_qx1ULQ-256" value="216" style="text;html=1;strokeColor=none;fillColor=none;align=center;verticalAlign=middle;whiteSpace=wrap;rounded=0;fontSize=17;fontColor=none;fontStyle=1" parent="1" vertex="1">
                    <mxGeometry x="1201" y="-550" width="40" height="20" as="geometry"/>
                </mxCell>
                <mxCell id="fkt52YcFWbxHf_qx1ULQ-257" value="" style="endArrow=none;html=1;strokeWidth=4;fontSize=17;fontColor=none;" parent="1" edge="1">
                    <mxGeometry width="50" height="50" relative="1" as="geometry">
                        <mxPoint x="1175" y="-320" as="sourcePoint"/>
                        <mxPoint x="1065" y="-470" as="targetPoint"/>
                        <Array as="points">
                            <mxPoint x="1170" y="-330"/>
                            <mxPoint x="1168" y="-350"/>
                            <mxPoint x="1148" y="-360"/>
                            <mxPoint x="1108" y="-390"/>
                            <mxPoint x="1088" y="-420"/>
                        </Array>
                    </mxGeometry>
                </mxCell>
                <mxCell id="fkt52YcFWbxHf_qx1ULQ-258" value="" style="endArrow=none;html=1;strokeWidth=4;fontSize=17;fontColor=none;" parent="1" edge="1">
                    <mxGeometry width="50" height="50" relative="1" as="geometry">
                        <mxPoint x="1125" y="-437" as="sourcePoint"/>
                        <mxPoint x="1100" y="-482" as="targetPoint"/>
                        <Array as="points">
                            <mxPoint x="1120" y="-460"/>
                        </Array>
                    </mxGeometry>
                </mxCell>
                <mxCell id="fkt52YcFWbxHf_qx1ULQ-259" value="" style="endArrow=none;html=1;strokeWidth=4;fontSize=17;fontColor=none;" parent="1" edge="1">
                    <mxGeometry width="50" height="50" relative="1" as="geometry">
                        <mxPoint x="1188" y="-425" as="sourcePoint"/>
                        <mxPoint x="1149" y="-515" as="targetPoint"/>
                    </mxGeometry>
                </mxCell>
                <mxCell id="fkt52YcFWbxHf_qx1ULQ-260" value="" style="endArrow=none;html=1;strokeWidth=4;fontSize=17;fontColor=none;" parent="1" edge="1">
                    <mxGeometry width="50" height="50" relative="1" as="geometry">
                        <mxPoint x="1193" y="-370" as="sourcePoint"/>
                        <mxPoint x="1271" y="-510" as="targetPoint"/>
                        <Array as="points">
                            <mxPoint x="1170" y="-400"/>
                            <mxPoint x="1170" y="-410"/>
                            <mxPoint x="1193" y="-430"/>
                            <mxPoint x="1220" y="-440"/>
                            <mxPoint x="1220" y="-450"/>
                            <mxPoint x="1240" y="-460"/>
                        </Array>
                    </mxGeometry>
                </mxCell>
                <mxCell id="fkt52YcFWbxHf_qx1ULQ-261" value="243" style="text;html=1;strokeColor=none;fillColor=none;align=center;verticalAlign=middle;whiteSpace=wrap;rounded=0;fontSize=17;fontColor=none;fontStyle=1" parent="1" vertex="1">
                    <mxGeometry x="990" y="-419.24" width="40" height="20" as="geometry"/>
                </mxCell>
                <mxCell id="fkt52YcFWbxHf_qx1ULQ-262" value="210" style="text;html=1;strokeColor=none;fillColor=none;align=center;verticalAlign=middle;whiteSpace=wrap;rounded=0;fontSize=17;fontColor=none;fontStyle=1" parent="1" vertex="1">
                    <mxGeometry x="1076" y="-473" width="40" height="20" as="geometry"/>
                </mxCell>
                <mxCell id="fkt52YcFWbxHf_qx1ULQ-263" value="215" style="text;html=1;strokeColor=none;fillColor=none;align=center;verticalAlign=middle;whiteSpace=wrap;rounded=0;fontSize=17;fontColor=none;fontStyle=1" parent="1" vertex="1">
                    <mxGeometry x="1167" y="-486" width="40" height="20" as="geometry"/>
                </mxCell>
                <mxCell id="fkt52YcFWbxHf_qx1ULQ-264" value="211" style="text;html=1;strokeColor=none;fillColor=none;align=center;verticalAlign=middle;whiteSpace=wrap;rounded=0;fontSize=17;fontColor=none;fontStyle=1" parent="1" vertex="1">
                    <mxGeometry x="1108" y="-439.81" width="40" height="20" as="geometry"/>
                </mxCell>
                <mxCell id="fkt52YcFWbxHf_qx1ULQ-265" value="214" style="text;html=1;strokeColor=none;fillColor=none;align=center;verticalAlign=middle;whiteSpace=wrap;rounded=0;fontSize=17;fontColor=none;fontStyle=1" parent="1" vertex="1">
                    <mxGeometry x="1096" y="-420" width="40" height="20" as="geometry"/>
                </mxCell>
                <mxCell id="fkt52YcFWbxHf_qx1ULQ-266" value="208" style="text;html=1;strokeColor=none;fillColor=none;align=center;verticalAlign=middle;whiteSpace=wrap;rounded=0;fontSize=17;fontColor=none;fontStyle=1" parent="1" vertex="1">
                    <mxGeometry x="1010" y="-381.38" width="40" height="20" as="geometry"/>
                </mxCell>
                <mxCell id="fkt52YcFWbxHf_qx1ULQ-267" value="248" style="text;html=1;strokeColor=none;fillColor=none;align=center;verticalAlign=middle;whiteSpace=wrap;rounded=0;fontSize=17;fontColor=none;fontStyle=4" parent="1" vertex="1">
                    <mxGeometry x="1004" y="-401.38" width="40" height="20" as="geometry"/>
                </mxCell>
                <mxCell id="fkt52YcFWbxHf_qx1ULQ-268" value="206" style="text;html=1;strokeColor=none;fillColor=none;align=center;verticalAlign=middle;whiteSpace=wrap;rounded=0;fontSize=17;fontColor=none;fontStyle=1" parent="1" vertex="1">
                    <mxGeometry x="1081" y="-383.38" width="40" height="20" as="geometry"/>
                </mxCell>
                <mxCell id="fkt52YcFWbxHf_qx1ULQ-269" value="&lt;b&gt;217&lt;/b&gt;" style="text;html=1;strokeColor=none;fillColor=none;align=center;verticalAlign=middle;whiteSpace=wrap;rounded=0;fontSize=17;fontColor=none;" parent="1" vertex="1">
                    <mxGeometry x="1181" y="-427" width="40" height="20" as="geometry"/>
                </mxCell>
                <mxCell id="fkt52YcFWbxHf_qx1ULQ-270" value="246" style="text;html=1;strokeColor=none;fillColor=none;align=center;verticalAlign=middle;whiteSpace=wrap;rounded=0;fontSize=17;fontColor=none;fontStyle=1" parent="1" vertex="1">
                    <mxGeometry x="1192" y="-383.38" width="40" height="20" as="geometry"/>
                </mxCell>
                <mxCell id="fkt52YcFWbxHf_qx1ULQ-271" value="219" style="text;html=1;strokeColor=none;fillColor=none;align=center;verticalAlign=middle;whiteSpace=wrap;rounded=0;fontSize=17;fontColor=none;fontStyle=1" parent="1" vertex="1">
                    <mxGeometry x="1241" y="-466" width="40" height="20" as="geometry"/>
                </mxCell>
                <mxCell id="fkt52YcFWbxHf_qx1ULQ-272" value="213" style="text;html=1;strokeColor=none;fillColor=none;align=center;verticalAlign=middle;whiteSpace=wrap;rounded=0;fontSize=17;fontColor=none;fontStyle=1" parent="1" vertex="1">
                    <mxGeometry x="1267" y="-519" width="40" height="20" as="geometry"/>
                </mxCell>
                <mxCell id="fkt52YcFWbxHf_qx1ULQ-273" value="CEMENTERIO" style="text;html=1;strokeColor=none;fillColor=none;align=center;verticalAlign=middle;whiteSpace=wrap;rounded=0;fontSize=13;fontColor=none;fontStyle=1" parent="1" vertex="1">
                    <mxGeometry x="1260" y="-445" width="40" height="20" as="geometry"/>
                </mxCell>
                <mxCell id="fkt52YcFWbxHf_qx1ULQ-274" value="" style="rounded=1;whiteSpace=wrap;html=1;strokeWidth=2;fillColor=none;fontSize=13;fontColor=none;" parent="1" vertex="1">
                    <mxGeometry x="1230" y="-445" width="100" height="20" as="geometry"/>
                </mxCell>
                <mxCell id="fkt52YcFWbxHf_qx1ULQ-275" value="AUTOBUSES BERNARDO" style="text;html=1;strokeColor=none;fillColor=none;align=center;verticalAlign=middle;whiteSpace=wrap;rounded=0;fontSize=13;fontColor=none;fontStyle=1" parent="1" vertex="1">
                    <mxGeometry x="1295" y="-581" width="40" height="20" as="geometry"/>
                </mxCell>
                <mxCell id="fkt52YcFWbxHf_qx1ULQ-276" value="" style="rounded=1;whiteSpace=wrap;html=1;strokeWidth=2;fillColor=none;fontSize=13;fontColor=none;" parent="1" vertex="1">
                    <mxGeometry x="1270" y="-597" width="90" height="53" as="geometry"/>
                </mxCell>
                <mxCell id="fkt52YcFWbxHf_qx1ULQ-277" value="" style="endArrow=classic;html=1;strokeWidth=1;fontSize=13;fontColor=none;exitX=0.289;exitY=1;exitDx=0;exitDy=0;exitPerimeter=0;" parent="1" edge="1">
                    <mxGeometry width="50" height="50" relative="1" as="geometry">
                        <mxPoint x="1297" y="-545" as="sourcePoint"/>
                        <mxPoint x="1160" y="-434" as="targetPoint"/>
                    </mxGeometry>
                </mxCell>
                <mxCell id="fkt52YcFWbxHf_qx1ULQ-278" value="212" style="text;html=1;strokeColor=none;fillColor=none;align=center;verticalAlign=middle;whiteSpace=wrap;rounded=0;fontSize=17;fontColor=none;strokeWidth=4;fontStyle=1" parent="1" vertex="1">
                    <mxGeometry x="1173" y="-329" width="40" height="20" as="geometry"/>
                </mxCell>
                <mxCell id="fkt52YcFWbxHf_qx1ULQ-279" value="140" style="text;html=1;strokeColor=none;fillColor=none;align=center;verticalAlign=middle;whiteSpace=wrap;rounded=0;fontSize=17;fontColor=none;fontStyle=1" parent="1" vertex="1">
                    <mxGeometry x="1214" y="-114" width="40" height="20" as="geometry"/>
                </mxCell>
                <mxCell id="fkt52YcFWbxHf_qx1ULQ-280" value="141-142" style="text;html=1;strokeColor=none;fillColor=none;align=center;verticalAlign=middle;whiteSpace=wrap;rounded=0;fontSize=17;fontColor=none;fontStyle=1" parent="1" vertex="1">
                    <mxGeometry x="1154" y="-78" width="70" height="20" as="geometry"/>
                </mxCell>
                <mxCell id="fkt52YcFWbxHf_qx1ULQ-281" value="139" style="text;html=1;strokeColor=none;fillColor=none;align=center;verticalAlign=middle;whiteSpace=wrap;rounded=0;fontSize=17;fontColor=none;fontStyle=1" parent="1" vertex="1">
                    <mxGeometry x="1088" y="35" width="40" height="20" as="geometry"/>
                </mxCell>
                <mxCell id="fkt52YcFWbxHf_qx1ULQ-282" value="HIPICA" style="text;html=1;strokeColor=none;fillColor=none;align=center;verticalAlign=middle;whiteSpace=wrap;rounded=0;fontSize=13;fontColor=none;fontStyle=1" parent="1" vertex="1">
                    <mxGeometry x="1145" y="-859" width="40" height="20" as="geometry"/>
                </mxCell>
                <mxCell id="fkt52YcFWbxHf_qx1ULQ-283" value="" style="rounded=1;whiteSpace=wrap;html=1;strokeWidth=2;fillColor=none;fontSize=13;fontColor=none;" parent="1" vertex="1">
                    <mxGeometry x="1135" y="-864" width="60" height="30" as="geometry"/>
                </mxCell>
                <mxCell id="fkt52YcFWbxHf_qx1ULQ-284" value="&lt;b&gt;Ventosa rambla&lt;/b&gt;" style="text;html=1;strokeColor=none;fillColor=none;align=center;verticalAlign=middle;whiteSpace=wrap;rounded=0;fontSize=13;fontColor=none;" parent="1" vertex="1">
                    <mxGeometry x="983" y="-1104" width="40" height="20" as="geometry"/>
                </mxCell>
                <mxCell id="fkt52YcFWbxHf_qx1ULQ-285" value="" style="rounded=1;whiteSpace=wrap;html=1;strokeWidth=2;fillColor=none;fontSize=13;fontColor=none;" parent="1" vertex="1">
                    <mxGeometry x="970" y="-1114" width="70" height="40" as="geometry"/>
                </mxCell>
                <mxCell id="fkt52YcFWbxHf_qx1ULQ-286" value="BALSA" style="text;html=1;strokeColor=none;fillColor=none;align=center;verticalAlign=middle;whiteSpace=wrap;rounded=0;fontSize=17;fontColor=none;fontStyle=1" parent="1" vertex="1">
                    <mxGeometry x="831" y="-1152" width="40" height="20" as="geometry"/>
                </mxCell>
                <mxCell id="fkt52YcFWbxHf_qx1ULQ-288" value="138" style="text;html=1;strokeColor=none;fillColor=none;align=center;verticalAlign=middle;whiteSpace=wrap;rounded=0;fontSize=17;fontColor=none;fontStyle=1" parent="1" vertex="1">
                    <mxGeometry x="917" y="-1139" width="40" height="20" as="geometry"/>
                </mxCell>
                <mxCell id="fkt52YcFWbxHf_qx1ULQ-289" value="251" style="text;html=1;strokeColor=none;fillColor=none;align=center;verticalAlign=middle;whiteSpace=wrap;rounded=0;fontSize=17;fontColor=none;fontStyle=1" parent="1" vertex="1">
                    <mxGeometry x="949" y="-1048" width="40" height="20" as="geometry"/>
                </mxCell>
                <mxCell id="fkt52YcFWbxHf_qx1ULQ-292" value="" style="endArrow=none;html=1;strokeWidth=4;fontSize=17;fontColor=none;" parent="1" edge="1">
                    <mxGeometry width="50" height="50" relative="1" as="geometry">
                        <mxPoint x="900" y="-1040" as="sourcePoint"/>
                        <mxPoint x="959" y="-1084" as="targetPoint"/>
                    </mxGeometry>
                </mxCell>
                <mxCell id="fkt52YcFWbxHf_qx1ULQ-293" value="" style="verticalLabelPosition=bottom;align=center;html=1;verticalAlign=top;pointerEvents=1;dashed=0;shape=mxgraph.pid2valves.valve;valveType=gate;defState=closed;strokeWidth=1;fillColor=none;fontSize=17;rotation=-120;" parent="1" vertex="1">
                    <mxGeometry x="941" y="-1083" width="20" height="10" as="geometry"/>
                </mxCell>
                <mxCell id="fkt52YcFWbxHf_qx1ULQ-295" value="" style="verticalLabelPosition=bottom;align=center;html=1;verticalAlign=top;pointerEvents=1;dashed=0;shape=mxgraph.pid2valves.valve;valveType=gate;defState=closed;strokeWidth=1;fillColor=none;fontSize=17;rotation=-85;" parent="1" vertex="1">
                    <mxGeometry x="896" y="-855" width="20" height="10" as="geometry"/>
                </mxCell>
                <mxCell id="fkt52YcFWbxHf_qx1ULQ-297" value="" style="endArrow=none;html=1;strokeWidth=4;fontSize=17;fontColor=none;" parent="1" edge="1">
                    <mxGeometry width="50" height="50" relative="1" as="geometry">
                        <mxPoint x="1012" y="-990" as="sourcePoint"/>
                        <mxPoint x="1138" y="-910" as="targetPoint"/>
                        <Array as="points">
                            <mxPoint x="1048" y="-1000"/>
                            <mxPoint x="1068" y="-950"/>
                            <mxPoint x="1128" y="-970"/>
                        </Array>
                    </mxGeometry>
                </mxCell>
                <mxCell id="fkt52YcFWbxHf_qx1ULQ-299" value="255" style="text;html=1;strokeColor=none;fillColor=none;align=center;verticalAlign=middle;whiteSpace=wrap;rounded=0;fontSize=17;fontColor=none;fontStyle=1" parent="1" vertex="1">
                    <mxGeometry x="896" y="-1079" width="40" height="20" as="geometry"/>
                </mxCell>
                <mxCell id="fkt52YcFWbxHf_qx1ULQ-301" value="144" style="text;html=1;strokeColor=none;fillColor=none;align=center;verticalAlign=middle;whiteSpace=wrap;rounded=0;fontSize=17;fontColor=none;fontStyle=1" parent="1" vertex="1">
                    <mxGeometry x="897" y="-1043" width="40" height="20" as="geometry"/>
                </mxCell>
                <mxCell id="fkt52YcFWbxHf_qx1ULQ-302" value="242" style="text;html=1;strokeColor=none;fillColor=none;align=center;verticalAlign=middle;whiteSpace=wrap;rounded=0;fontSize=17;fontColor=none;fontStyle=1" parent="1" vertex="1">
                    <mxGeometry x="968" y="-1013" width="40" height="20" as="geometry"/>
                </mxCell>
                <mxCell id="fkt52YcFWbxHf_qx1ULQ-303" value="249" style="text;html=1;strokeColor=none;fillColor=none;align=center;verticalAlign=middle;whiteSpace=wrap;rounded=0;fontSize=17;fontColor=none;fontStyle=1" parent="1" vertex="1">
                    <mxGeometry x="1056" y="-1002" width="40" height="20" as="geometry"/>
                </mxCell>
                <mxCell id="fkt52YcFWbxHf_qx1ULQ-304" value="198" style="text;html=1;strokeColor=none;fillColor=none;align=center;verticalAlign=middle;whiteSpace=wrap;rounded=0;fontSize=17;fontColor=none;fontStyle=1" parent="1" vertex="1">
                    <mxGeometry x="1016" y="-973" width="40" height="20" as="geometry"/>
                </mxCell>
                <mxCell id="fkt52YcFWbxHf_qx1ULQ-306" value="229" style="text;html=1;strokeColor=none;fillColor=none;align=center;verticalAlign=middle;whiteSpace=wrap;rounded=0;fontSize=17;fontColor=none;fontStyle=1" parent="1" vertex="1">
                    <mxGeometry x="990" y="-950" width="40" height="20" as="geometry"/>
                </mxCell>
                <mxCell id="fkt52YcFWbxHf_qx1ULQ-307" value="235-238" style="text;html=1;strokeColor=none;fillColor=none;align=center;verticalAlign=middle;whiteSpace=wrap;rounded=0;fontSize=17;fontColor=none;fontStyle=1" parent="1" vertex="1">
                    <mxGeometry x="955" y="-915" width="70" height="20" as="geometry"/>
                </mxCell>
                <mxCell id="fkt52YcFWbxHf_qx1ULQ-308" value="231-234" style="text;html=1;strokeColor=none;fillColor=none;align=center;verticalAlign=middle;whiteSpace=wrap;rounded=0;fontSize=17;fontColor=none;fontStyle=1" parent="1" vertex="1">
                    <mxGeometry x="1121" y="-988" width="70" height="20" as="geometry"/>
                </mxCell>
                <mxCell id="fkt52YcFWbxHf_qx1ULQ-309" value="232" style="text;html=1;strokeColor=none;fillColor=none;align=center;verticalAlign=middle;whiteSpace=wrap;rounded=0;fontSize=17;fontColor=none;fontStyle=1" parent="1" vertex="1">
                    <mxGeometry x="1135" y="-924" width="40" height="30" as="geometry"/>
                </mxCell>
                <mxCell id="fkt52YcFWbxHf_qx1ULQ-311" value="240" style="text;html=1;strokeColor=none;fillColor=none;align=center;verticalAlign=middle;whiteSpace=wrap;rounded=0;fontSize=17;fontColor=none;fontStyle=4" parent="1" vertex="1">
                    <mxGeometry x="1130" y="-955.81" width="40" height="20" as="geometry"/>
                </mxCell>
                <mxCell id="fkt52YcFWbxHf_qx1ULQ-312" value="SECTOR - IV" style="text;html=1;strokeColor=none;fillColor=none;align=center;verticalAlign=middle;whiteSpace=wrap;rounded=0;fontSize=43;fontColor=none;fontStyle=1" parent="1" vertex="1">
                    <mxGeometry x="225" y="-1042" width="266" height="33" as="geometry"/>
                </mxCell>
                <mxCell id="fkt52YcFWbxHf_qx1ULQ-313" value="Actualizado: 30/09/2020" style="text;html=1;strokeColor=none;fillColor=none;align=center;verticalAlign=middle;whiteSpace=wrap;rounded=0;fontSize=25;fontColor=none;fontStyle=1" parent="1" vertex="1">
                    <mxGeometry x="202" y="-993" width="304" height="20" as="geometry"/>
                </mxCell>
                <mxCell id="2" value="162" style="text;html=1;strokeColor=none;fillColor=none;align=center;verticalAlign=middle;whiteSpace=wrap;rounded=0;fontSize=17;fontColor=none;fontStyle=1" vertex="1" parent="1">
                    <mxGeometry x="527" y="-493" width="40" height="20" as="geometry"/>
                </mxCell>
            </root>
        </mxGraphModel>
    </diagram>
</mxfile>